Panamera-UltraBold.ufo
<glyph name="exclam" format="1">
  <advance width="310"/>
  <unicode hex="0021"/>
  <outline>
    <contour>
      <point x="87" y="198" type="line"/>
      <point x="223" y="198" type="line"/>
      <point x="243" y="577" type="line"/>
      <point x="244" y="730" type="line"/>
      <point x="66" y="730" type="line"/>
      <point x="66" y="577" type="line"/>
    </contour>
    <contour>
      <point x="66" y="148" type="line"/>
      <point x="66" y="0" type="line"/>
      <point x="244" y="0" type="line"/>
      <point x="244" y="148" type="line"/>
    </contour>
  </outline>
</glyph>
<glyph name="quotedbl" format="1">
  <advance width="644"/>
  <unicode hex="0022"/>
  <outline>
    <contour>
      <point x="126" y="756" type="line"/>
      <point x="138" y="472" type="line"/>
      <point x="292" y="472" type="line"/>
      <point x="304" y="756" type="line"/>
    </contour>
    <contour>
      <point x="340" y="756" type="line"/>
      <point x="352" y="472" type="line"/>
      <point x="506" y="472" type="line"/>
      <point x="518" y="756" type="line"/>
    </contour>
  </outline>
</glyph>
<glyph name="numbersign" format="1">
  <advance width="823"/>
  <unicode hex="0023"/>
  <outline>
    <contour>
      <point x="620" y="289" type="line"/>
      <point x="672" y="444" type="line"/>
      <point x="820" y="444" type="line"/>
      <point x="820" y="564" type="line"/>
      <point x="712" y="564" type="line"/>
      <point x="775" y="752" type="line"/>
      <point x="619" y="752" type="line"/>
      <point x="556" y="564" type="line"/>
      <point x="408" y="564" type="line"/>
      <point x="471" y="752" type="line"/>
      <point x="315" y="752" type="line"/>
      <point x="252" y="564" type="line"/>
      <point x="81" y="564" type="line"/>
      <point x="81" y="444" type="line"/>
      <point x="212" y="444" type="line"/>
      <point x="160" y="289" type="line"/>
      <point x="21" y="289" type="line"/>
      <point x="21" y="169" type="line"/>
      <point x="119" y="169" type="line"/>
      <point x="62" y="-2" type="line"/>
      <point x="218" y="-2" type="line"/>
      <point x="275" y="169" type="line"/>
      <point x="423" y="169" type="line"/>
      <point x="366" y="-2" type="line"/>
      <point x="523" y="-2" type="line"/>
      <point x="580" y="169" type="line"/>
      <point x="750" y="169" type="line"/>
      <point x="750" y="289" type="line"/>
    </contour>
    <contour>
      <point x="368" y="444" type="line"/>
      <point x="516" y="444" type="line"/>
      <point x="464" y="289" type="line"/>
      <point x="316" y="289" type="line"/>
    </contour>
  </outline>
</glyph>
<glyph name="dollar" format="1">
  <advance width="572"/>
  <unicode hex="0024"/>
  <outline>
    <contour>
      <point x="586" y="320"/>
      <point x="473" y="373"/>
      <point x="385" y="406" type="curve"/>
      <point x="385" y="580" type="line"/>
      <point x="403" y="565"/>
      <point x="413" y="541"/>
      <point x="417" y="508" type="curve"/>
      <point x="558" y="544" type="line"/>
      <point x="549" y="628"/>
      <point x="475" y="683"/>
      <point x="385" y="702" type="curve"/>
      <point x="385" y="804" type="line"/>
      <point x="335" y="804" type="line"/>
      <point x="335" y="708" type="line"/>
      <point x="329" y="709"/>
      <point x="322" y="709"/>
      <point x="316" y="709" type="curve" smooth="yes"/>
      <point x="313" y="709"/>
      <point x="310" y="709"/>
      <point x="307" y="709" type="curve"/>
      <point x="307" y="804" type="line"/>
      <point x="256" y="804" type="line"/>
      <point x="256" y="704" type="line"/>
      <point x="148" y="687"/>
      <point x="71" y="623"/>
      <point x="71" y="521" type="curve" smooth="yes"/>
      <point x="71" y="420"/>
      <point x="139" y="372"/>
      <point x="256" y="328" type="curve"/>
      <point x="256" y="119" type="line"/>
      <point x="194" y="136"/>
      <point x="164" y="183"/>
      <point x="137" y="258" type="curve"/>
      <point x="12" y="195" type="line"/>
      <point x="43" y="98"/>
      <point x="120" y="16"/>
      <point x="256" y="-4" type="curve"/>
      <point x="256" y="-101" type="line"/>
      <point x="307" y="-101" type="line"/>
      <point x="307" y="-8" type="line"/>
      <point x="311" y="-8"/>
      <point x="316" y="-8"/>
      <point x="321" y="-8" type="curve" smooth="yes"/>
      <point x="326" y="-8"/>
      <point x="330" y="-8"/>
      <point x="335" y="-8" type="curve"/>
      <point x="335" y="-101" type="line"/>
      <point x="385" y="-101" type="line"/>
      <point x="385" y="-4" type="line"/>
      <point x="517" y="16"/>
      <point x="586" y="97"/>
      <point x="586" y="210" type="curve" smooth="yes"/>
    </contour>
    <contour>
      <point x="323" y="599"/>
      <point x="329" y="599"/>
      <point x="335" y="598" type="curve"/>
      <point x="335" y="424" type="line"/>
      <point x="325" y="428"/>
      <point x="315" y="432"/>
      <point x="307" y="435" type="curve"/>
      <point x="307" y="599" type="line"/>
      <point x="310" y="599"/>
      <point x="313" y="599"/>
      <point x="316" y="599" type="curve" smooth="yes"/>
    </contour>
    <contour>
      <point x="221" y="548"/>
      <point x="234" y="570"/>
      <point x="256" y="583" type="curve"/>
      <point x="256" y="462" type="line"/>
      <point x="232" y="478"/>
      <point x="221" y="496"/>
      <point x="221" y="521" type="curve" smooth="yes"/>
    </contour>
    <contour>
      <point x="316" y="111"/>
      <point x="311" y="111"/>
      <point x="307" y="111" type="curve"/>
      <point x="307" y="310" type="line"/>
      <point x="316" y="307"/>
      <point x="326" y="304"/>
      <point x="335" y="300" type="curve"/>
      <point x="335" y="111" type="line"/>
      <point x="330" y="111"/>
      <point x="326" y="111"/>
      <point x="321" y="111" type="curve" smooth="yes"/>
    </contour>
    <contour>
      <point x="385" y="278" type="line"/>
      <point x="418" y="260"/>
      <point x="437" y="237"/>
      <point x="437" y="200" type="curve" smooth="yes"/>
      <point x="437" y="157"/>
      <point x="418" y="132"/>
      <point x="385" y="120" type="curve"/>
    </contour>
  </outline>
</glyph>
<glyph name="ampersand" format="1">
  <advance width="890"/>
  <unicode hex="0026"/>
  <outline>
    <contour>
      <point x="686" y="189" type="line"/>
      <point x="771" y="113"/>
      <point x="749" y="64"/>
      <point x="711" y="64" type="curve" smooth="yes"/>
      <point x="690" y="64"/>
      <point x="661" y="79"/>
      <point x="629" y="103" type="curve"/>
      <point x="688" y="180"/>
      <point x="726" y="291"/>
      <point x="724" y="442" type="curve"/>
      <point x="559" y="442" type="line"/>
      <point x="560" y="336"/>
      <point x="548" y="258"/>
      <point x="526" y="200" type="curve"/>
      <point x="477" y="253"/>
      <point x="427" y="316"/>
      <point x="388" y="376" type="curve"/>
      <point x="498" y="411"/>
      <point x="607" y="455"/>
      <point x="607" y="574" type="curve" smooth="yes"/>
      <point x="607" y="664"/>
      <point x="515" y="750"/>
      <point x="386" y="750" type="curve" smooth="yes"/>
      <point x="255" y="750"/>
      <point x="146" y="679"/>
      <point x="146" y="569" type="curve" smooth="yes"/>
      <point x="146" y="524"/>
      <point x="161" y="477"/>
      <point x="186" y="434" type="curve"/>
      <point x="91" y="396"/>
      <point x="7" y="338"/>
      <point x="7" y="221" type="curve" smooth="yes"/>
      <point x="7" y="84"/>
      <point x="142" y="-43"/>
      <point x="330" y="-43" type="curve" smooth="yes"/>
      <point x="401" y="-43"/>
      <point x="477" y="-23"/>
      <point x="542" y="21" type="curve"/>
      <point x="601" y="-19"/>
      <point x="660" y="-43"/>
      <point x="711" y="-43" type="curve" smooth="yes"/>
      <point x="881" y="-43"/>
      <point x="949" y="100"/>
      <point x="798" y="266" type="curve"/>
    </contour>
    <contour>
      <point x="302" y="622"/>
      <point x="346" y="643"/>
      <point x="386" y="643" type="curve" smooth="yes"/>
      <point x="428" y="643"/>
      <point x="462" y="626"/>
      <point x="462" y="574" type="curve" smooth="yes"/>
      <point x="462" y="520"/>
      <point x="398" y="506"/>
      <point x="327" y="483" type="curve"/>
      <point x="311" y="517"/>
      <point x="302" y="547"/>
      <point x="302" y="569" type="curve" smooth="yes"/>
    </contour>
    <contour>
      <point x="234" y="64"/>
      <point x="163" y="127"/>
      <point x="163" y="221" type="curve" smooth="yes"/>
      <point x="163" y="272"/>
      <point x="198" y="303"/>
      <point x="248" y="327" type="curve"/>
      <point x="302" y="246"/>
      <point x="373" y="162"/>
      <point x="447" y="95" type="curve"/>
      <point x="414" y="73"/>
      <point x="374" y="64"/>
      <point x="330" y="64" type="curve" smooth="yes"/>
    </contour>
  </outline>
</glyph>
<glyph name="quotesingle" format="1">
  <advance width="430"/>
  <unicode hex="0027"/>
  <outline>
    <contour>
      <point x="126" y="756" type="line"/>
      <point x="138" y="472" type="line"/>
      <point x="292" y="472" type="line"/>
      <point x="304" y="756" type="line"/>
    </contour>
  </outline>
</glyph>
<glyph name="parenleft" format="1">
  <advance width="373"/>
  <unicode hex="0028"/>
  <outline>
    <contour>
      <point x="223" y="766" type="line"/>
      <point x="157" y="681"/>
      <point x="61" y="530"/>
      <point x="58" y="311" type="curve" smooth="yes"/>
      <point x="61" y="101"/>
      <point x="157" y="-49"/>
      <point x="222" y="-144" type="curve"/>
      <point x="371" y="-144" type="line"/>
      <point x="313" y="-64"/>
      <point x="231" y="88"/>
      <point x="228" y="309" type="curve"/>
      <point x="231" y="543"/>
      <point x="317" y="701"/>
      <point x="372" y="766" type="curve"/>
    </contour>
  </outline>
</glyph>
<glyph name="parenright" format="1">
  <advance width="373"/>
  <unicode hex="0029"/>
  <outline>
    <contour>
      <point x="1" y="766" type="line"/>
      <point x="56" y="701"/>
      <point x="142" y="543"/>
      <point x="145" y="309" type="curve" smooth="yes"/>
      <point x="142" y="88"/>
      <point x="60" y="-64"/>
      <point x="2" y="-144" type="curve"/>
      <point x="151" y="-144" type="line"/>
      <point x="216" y="-49"/>
      <point x="312" y="101"/>
      <point x="315" y="311" type="curve"/>
      <point x="312" y="530"/>
      <point x="216" y="681"/>
      <point x="150" y="766" type="curve"/>
    </contour>
  </outline>
</glyph>
<glyph name="asterisk" format="1">
  <advance width="600"/>
  <unicode hex="002A"/>
  <outline>
    <contour>
      <point x="459" y="536" type="line"/>
      <point x="384" y="560" type="line"/>
      <point x="459" y="585" type="line"/>
      <point x="442" y="640" type="line"/>
      <point x="378" y="619" type="line"/>
      <point x="414" y="669" type="line"/>
      <point x="353" y="712" type="line"/>
      <point x="331" y="682" type="line"/>
      <point x="331" y="717" type="line"/>
      <point x="247" y="717" type="line"/>
      <point x="247" y="681" type="line"/>
      <point x="224" y="712" type="line"/>
      <point x="163" y="669" type="line"/>
      <point x="198" y="621" type="line"/>
      <point x="136" y="641" type="line"/>
      <point x="119" y="584" type="line"/>
      <point x="194" y="560" type="line"/>
      <point x="119" y="535" type="line"/>
      <point x="136" y="480" type="line"/>
      <point x="200" y="501" type="line"/>
      <point x="164" y="451" type="line"/>
      <point x="225" y="408" type="line"/>
      <point x="247" y="438" type="line"/>
      <point x="247" y="403" type="line"/>
      <point x="331" y="403" type="line"/>
      <point x="331" y="439" type="line"/>
      <point x="354" y="408" type="line"/>
      <point x="415" y="451" type="line"/>
      <point x="380" y="499" type="line"/>
      <point x="442" y="479" type="line"/>
    </contour>
  </outline>
</glyph>
<glyph name="plus" format="1">
  <advance width="600"/>
  <unicode hex="002B"/>
  <outline>
    <contour>
      <point x="373" y="185" type="line"/>
      <point x="563" y="185" type="line"/>
      <point x="563" y="301" type="line"/>
      <point x="373" y="301" type="line"/>
      <point x="373" y="490" type="line"/>
      <point x="227" y="490" type="line"/>
      <point x="227" y="301" type="line"/>
      <point x="36" y="301" type="line"/>
      <point x="36" y="185" type="line"/>
      <point x="227" y="185" type="line"/>
      <point x="227" y="-3" type="line"/>
      <point x="373" y="-3" type="line"/>
    </contour>
  </outline>
</glyph>
<glyph name="hyphen" format="1">
  <advance width="517"/>
  <unicode hex="002D"/>
  <outline>
    <contour>
      <point x="29" y="318" type="line"/>
      <point x="29" y="202" type="line"/>
      <point x="488" y="202" type="line"/>
      <point x="488" y="318" type="line"/>
    </contour>
  </outline>
</glyph>
<glyph name="slash" format="1">
  <advance width="413"/>
  <unicode hex="002F"/>
  <outline>
    <contour>
      <point x="406" y="722" type="line"/>
      <point x="286" y="722" type="line"/>
      <point x="37" y="-117" type="line"/>
      <point x="157" y="-117" type="line"/>
    </contour>
  </outline>
</glyph>
<glyph name="zero" format="1">
  <advance width="652"/>
  <unicode hex="0030"/>
  <outline>
    <contour>
      <point x="529" y="-12"/>
      <point x="638" y="140"/>
      <point x="638" y="348" type="curve" smooth="yes"/>
      <point x="638" y="556"/>
      <point x="529" y="708"/>
      <point x="325" y="708" type="curve" smooth="yes"/>
      <point x="122" y="708"/>
      <point x="14" y="556"/>
      <point x="14" y="348" type="curve" smooth="yes"/>
      <point x="14" y="140"/>
      <point x="122" y="-12"/>
      <point x="325" y="-12" type="curve" smooth="yes"/>
    </contour>
    <contour>
      <point x="234" y="99"/>
      <point x="169" y="185"/>
      <point x="169" y="348" type="curve" smooth="yes"/>
      <point x="169" y="511"/>
      <point x="234" y="597"/>
      <point x="325" y="597" type="curve" smooth="yes"/>
      <point x="417" y="597"/>
      <point x="483" y="511"/>
      <point x="483" y="348" type="curve" smooth="yes"/>
      <point x="483" y="185"/>
      <point x="417" y="99"/>
      <point x="325" y="99" type="curve" smooth="yes"/>
    </contour>
  </outline>
</glyph>
<glyph name="one" format="1">
  <advance width="377"/>
  <unicode hex="0031"/>
  <outline>
    <contour>
      <point x="328" y="0" type="line"/>
      <point x="328" y="700" type="line"/>
      <point x="174" y="700" type="line"/>
      <point x="174" y="682" type="line"/>
      <point x="169" y="634"/>
      <point x="117" y="617"/>
      <point x="29" y="637" type="curve"/>
      <point x="29" y="537" type="line"/>
      <point x="174" y="537" type="line"/>
      <point x="174" y="-0" type="line"/>
    </contour>
  </outline>
</glyph>
<glyph name="two" format="1">
  <advance width="537"/>
  <unicode hex="0032"/>
  <outline>
    <contour>
      <point x="187" y="523" type="line"/>
      <point x="185" y="573"/>
      <point x="205" y="604"/>
      <point x="268" y="604" type="curve" smooth="yes"/>
      <point x="317" y="604"/>
      <point x="354" y="565"/>
      <point x="353" y="485" type="curve" smooth="yes"/>
      <point x="351" y="293"/>
      <point x="73" y="209"/>
      <point x="13" y="100" type="curve"/>
      <point x="12" y="0" type="line"/>
      <point x="525" y="0" type="line"/>
      <point x="525" y="123" type="line"/>
      <point x="213" y="123" type="line"/>
      <point x="274" y="202"/>
      <point x="508" y="275"/>
      <point x="506" y="496" type="curve" smooth="yes"/>
      <point x="505" y="619"/>
      <point x="426" y="713"/>
      <point x="268" y="713" type="curve" smooth="yes"/>
      <point x="112" y="713"/>
      <point x="16" y="620"/>
      <point x="34" y="509" type="curve"/>
    </contour>
  </outline>
</glyph>
<glyph name="three" format="1">
  <advance width="537"/>
  <unicode hex="0033"/>
  <outline>
    <contour>
      <point x="513" y="602" type="line"/>
      <point x="513" y="700" type="line"/>
      <point x="36" y="700" type="line"/>
      <point x="36" y="592" type="line"/>
      <point x="317" y="592" type="line"/>
      <point x="142" y="404" type="line"/>
      <point x="207" y="326" type="line"/>
      <point x="244" y="337"/>
      <point x="253" y="340"/>
      <point x="274" y="340" type="curve" smooth="yes"/>
      <point x="330" y="340"/>
      <point x="372" y="301"/>
      <point x="372" y="220" type="curve" smooth="yes"/>
      <point x="372" y="137"/>
      <point x="322" y="98"/>
      <point x="264" y="98" type="curve" smooth="yes"/>
      <point x="193" y="98"/>
      <point x="152" y="130"/>
      <point x="155" y="229" type="curve"/>
      <point x="2" y="229" type="line"/>
      <point x="-3" y="71"/>
      <point x="116" y="-10"/>
      <point x="264" y="-10" type="curve" smooth="yes"/>
      <point x="397" y="-10"/>
      <point x="525" y="80"/>
      <point x="525" y="220" type="curve" smooth="yes"/>
      <point x="525" y="337"/>
      <point x="445" y="411"/>
      <point x="345" y="430" type="curve"/>
    </contour>
  </outline>
</glyph>
<glyph name="four" format="1">
  <advance width="577"/>
  <unicode hex="0034"/>
  <outline>
    <contour>
      <point x="464" y="186" type="line"/>
      <point x="574" y="186" type="line"/>
      <point x="574" y="301" type="line"/>
      <point x="464" y="301" type="line"/>
      <point x="464" y="700" type="line"/>
      <point x="330" y="700" type="line"/>
      <point x="8" y="290" type="line"/>
      <point x="7" y="187" type="line"/>
      <point x="310" y="186" type="line"/>
      <point x="310" y="0" type="line"/>
      <point x="464" y="0" type="line"/>
    </contour>
    <contour>
      <point x="310" y="484" type="line"/>
      <point x="310" y="301" type="line"/>
      <point x="171" y="301" type="line"/>
    </contour>
  </outline>
</glyph>
<glyph name="seven" format="1">
  <advance width="504"/>
  <unicode hex="0037"/>
  <outline>
    <contour>
      <point x="186" y="0" type="line"/>
      <point x="514" y="697" type="line"/>
      <point x="517" y="700" type="line"/>
      <point x="28" y="700" type="line"/>
      <point x="28" y="576" type="line"/>
      <point x="294" y="576" type="line"/>
      <point x="14" y="0" type="line"/>
    </contour>
  </outline>
</glyph>
<glyph name="eight" format="1">
  <advance width="527"/>
  <unicode hex="0038"/>
  <outline>
    <contour>
      <point x="462" y="426"/>
      <point x="486" y="468"/>
      <point x="486" y="520" type="curve" smooth="yes"/>
      <point x="486" y="637"/>
      <point x="365" y="705"/>
      <point x="263" y="705" type="curve" smooth="yes"/>
      <point x="161" y="705"/>
      <point x="41" y="638"/>
      <point x="41" y="521" type="curve" smooth="yes"/>
      <point x="41" y="469"/>
      <point x="65" y="427"/>
      <point x="101" y="396" type="curve"/>
      <point x="42" y="357"/>
      <point x="2" y="297"/>
      <point x="2" y="222" type="curve" smooth="yes"/>
      <point x="2" y="87"/>
      <point x="131" y="-0"/>
      <point x="264" y="-0" type="curve" smooth="yes"/>
      <point x="397" y="-0"/>
      <point x="525" y="86"/>
      <point x="525" y="221" type="curve" smooth="yes"/>
      <point x="525" y="296"/>
      <point x="485" y="356"/>
      <point x="426" y="395" type="curve"/>
    </contour>
    <contour>
      <point x="195" y="580"/>
      <point x="232" y="600"/>
      <point x="264" y="600" type="curve" smooth="yes"/>
      <point x="296" y="600"/>
      <point x="332" y="581"/>
      <point x="332" y="521" type="curve" smooth="yes"/>
      <point x="332" y="470"/>
      <point x="300" y="442"/>
      <point x="263" y="442" type="curve" smooth="yes"/>
      <point x="226" y="442"/>
      <point x="195" y="470"/>
      <point x="195" y="520" type="curve" smooth="yes"/>
    </contour>
    <contour>
      <point x="205" y="105"/>
      <point x="156" y="142"/>
      <point x="156" y="221" type="curve" smooth="yes"/>
      <point x="156" y="299"/>
      <point x="206" y="337"/>
      <point x="264" y="337" type="curve" smooth="yes"/>
      <point x="322" y="337"/>
      <point x="371" y="300"/>
      <point x="371" y="222" type="curve" smooth="yes"/>
      <point x="371" y="142"/>
      <point x="321" y="105"/>
      <point x="263" y="105" type="curve" smooth="yes"/>
    </contour>
  </outline>
</glyph>
<glyph name="semicolon" format="1">
  <advance width="385"/>
  <unicode hex="003B"/>
  <outline>
    <contour>
      <point x="249" y="534" type="line"/>
      <point x="71" y="534" type="line"/>
      <point x="71" y="386" type="line"/>
      <point x="249" y="386" type="line"/>
    </contour>
    <contour>
      <point x="71" y="150" type="line"/>
      <point x="71" y="2" type="line"/>
      <point x="133" y="2" type="line"/>
      <point x="133" y="-36"/>
      <point x="129" y="-78"/>
      <point x="88" y="-93" type="curve"/>
      <point x="88" y="-167" type="line"/>
      <point x="225" y="-151"/>
      <point x="249" y="-36"/>
      <point x="249" y="2" type="curve" smooth="yes"/>
      <point x="249" y="150" type="line"/>
    </contour>
  </outline>
</glyph>
<glyph name="equal" format="1">
  <advance width="600"/>
  <unicode hex="003D"/>
  <outline>
    <contour>
      <point x="21" y="416" type="line"/>
      <point x="21" y="299" type="line"/>
      <point x="576" y="299" type="line"/>
      <point x="576" y="416" type="line"/>
    </contour>
    <contour>
      <point x="21" y="231" type="line"/>
      <point x="21" y="114" type="line"/>
      <point x="576" y="114" type="line"/>
      <point x="576" y="231" type="line"/>
    </contour>
  </outline>
</glyph>
<glyph name="question" format="1">
  <advance width="501"/>
  <unicode hex="003F"/>
  <outline>
    <contour>
      <point x="316" y="613"/>
      <point x="342" y="591"/>
      <point x="342" y="551" type="curve" smooth="yes"/>
      <point x="342" y="512"/>
      <point x="320" y="513"/>
      <point x="247" y="483" type="curve" smooth="yes"/>
      <point x="198" y="462"/>
      <point x="102" y="421"/>
      <point x="102" y="331" type="curve" smooth="yes"/>
      <point x="102" y="239"/>
      <point x="192" y="188"/>
      <point x="274" y="188" type="curve" smooth="yes"/>
      <point x="357" y="188"/>
      <point x="416" y="232"/>
      <point x="441" y="311" type="curve"/>
      <point x="302" y="355" type="line"/>
      <point x="312" y="308"/>
      <point x="293" y="292"/>
      <point x="279" y="292" type="curve" smooth="yes"/>
      <point x="265" y="292"/>
      <point x="254" y="303"/>
      <point x="254" y="331" type="curve" smooth="yes"/>
      <point x="254" y="366"/>
      <point x="272" y="378"/>
      <point x="295" y="388" type="curve" smooth="yes"/>
      <point x="352" y="414"/>
      <point x="492" y="443"/>
      <point x="492" y="553" type="curve" smooth="yes"/>
      <point x="492" y="634"/>
      <point x="419" y="720"/>
      <point x="274" y="720" type="curve" smooth="yes"/>
      <point x="168" y="720"/>
      <point x="63" y="661"/>
      <point x="39" y="572" type="curve"/>
      <point x="166" y="478" type="line"/>
      <point x="168" y="555"/>
      <point x="205" y="613"/>
      <point x="274" y="613" type="curve" smooth="yes"/>
    </contour>
    <contour>
      <point x="186" y="148" type="line"/>
      <point x="186" y="0" type="line"/>
      <point x="364" y="0" type="line"/>
      <point x="364" y="148" type="line"/>
    </contour>
  </outline>
</glyph>
<glyph name="at" format="1">
  <advance width="968"/>
  <unicode hex="0040"/>
  <outline>
    <contour>
      <point x="286" y="281"/>
      <point x="226" y="216"/>
      <point x="226" y="143" type="curve" smooth="yes"/>
      <point x="226" y="54"/>
      <point x="302" y="-15"/>
      <point x="434" y="-15" type="curve" smooth="yes"/>
      <point x="510" y="-15"/>
      <point x="562" y="11"/>
      <point x="597" y="48" type="curve"/>
      <point x="626" y="11"/>
      <point x="674" y="-15"/>
      <point x="738" y="-15" type="curve" smooth="yes"/>
      <point x="881" y="-15"/>
      <point x="950" y="98"/>
      <point x="950" y="233" type="curve" smooth="yes"/>
      <point x="950" y="481"/>
      <point x="765" y="694"/>
      <point x="484" y="694" type="curve" smooth="yes"/>
      <point x="203" y="694"/>
      <point x="18" y="481"/>
      <point x="18" y="233" type="curve" smooth="yes"/>
      <point x="18" y="-12"/>
      <point x="204" y="-223"/>
      <point x="484" y="-223" type="curve" smooth="yes"/>
      <point x="612" y="-223"/>
      <point x="728" y="-187"/>
      <point x="801" y="-118" type="curve"/>
      <point x="698" y="-20" type="line"/>
      <point x="639" y="-81"/>
      <point x="574" y="-100"/>
      <point x="484" y="-100" type="curve" smooth="yes"/>
      <point x="305" y="-100"/>
      <point x="185" y="36"/>
      <point x="185" y="233" type="curve" smooth="yes"/>
      <point x="185" y="433"/>
      <point x="306" y="572"/>
      <point x="484" y="572" type="curve" smooth="yes"/>
      <point x="663" y="572"/>
      <point x="783" y="433"/>
      <point x="783" y="233" type="curve" smooth="yes"/>
      <point x="783" y="128"/>
      <point x="758" y="102"/>
      <point x="745" y="102" type="curve" smooth="yes"/>
      <point x="726" y="102"/>
      <point x="718" y="111"/>
      <point x="718" y="137" type="curve" smooth="yes"/>
      <point x="718" y="302" type="line" smooth="yes"/>
      <point x="718" y="381"/>
      <point x="699" y="512"/>
      <point x="491" y="512" type="curve" smooth="yes"/>
      <point x="354" y="512"/>
      <point x="242" y="421"/>
      <point x="271" y="326" type="curve"/>
      <point x="431" y="325" type="line"/>
      <point x="428" y="332"/>
      <point x="433" y="405"/>
      <point x="491" y="405" type="curve" smooth="yes"/>
      <point x="529" y="405"/>
      <point x="548" y="390"/>
      <point x="557" y="364" type="curve"/>
      <point x="561" y="335"/>
      <point x="525" y="306"/>
      <point x="451" y="298" type="curve" smooth="yes"/>
    </contour>
    <contour>
      <point x="399" y="79"/>
      <point x="385" y="115"/>
      <point x="385" y="147" type="curve" smooth="yes"/>
      <point x="385" y="188"/>
      <point x="414" y="207"/>
      <point x="462" y="213" type="curve" smooth="yes"/>
      <point x="498" y="217"/>
      <point x="534" y="226"/>
      <point x="564" y="239" type="curve"/>
      <point x="568" y="122"/>
      <point x="509" y="79"/>
      <point x="448" y="79" type="curve" smooth="yes"/>
    </contour>
  </outline>
</glyph>
<glyph name="A" format="1">
  <advance width="813"/>
  <unicode hex="0041"/>
  <outline>
    <contour>
      <point x="538" y="177" type="line"/>
      <point x="611" y="0" type="line"/>
      <point x="773" y="0" type="line"/>
      <point x="489" y="700" type="line"/>
      <point x="324" y="700" type="line"/>
      <point x="40" y="0" type="line"/>
      <point x="202" y="0" type="line"/>
      <point x="275" y="177" type="line"/>
    </contour>
    <contour>
      <point x="493" y="288" type="line"/>
      <point x="320" y="288" type="line"/>
      <point x="406" y="499" type="line"/>
    </contour>
  </outline>
</glyph>
<glyph name="B" format="1">
  <advance width="637"/>
  <unicode hex="0042"/>
  <outline>
    <contour>
      <point x="472" y="448"/>
      <point x="488" y="485"/>
      <point x="488" y="528" type="curve" smooth="yes"/>
      <point x="488" y="657"/>
      <point x="373" y="700"/>
      <point x="260" y="700" type="curve" smooth="yes"/>
      <point x="50" y="700" type="line"/>
      <point x="50" y="0" type="line"/>
      <point x="315" y="0" type="line" smooth="yes"/>
      <point x="475" y="0"/>
      <point x="600" y="77"/>
      <point x="600" y="225" type="curve" smooth="yes"/>
      <point x="600" y="339"/>
      <point x="533" y="394"/>
      <point x="445" y="419" type="curve"/>
    </contour>
    <contour>
      <point x="203" y="585" type="line"/>
      <point x="260" y="585" type="line" smooth="yes"/>
      <point x="311" y="585"/>
      <point x="345" y="564"/>
      <point x="345" y="508" type="curve" smooth="yes"/>
      <point x="345" y="462"/>
      <point x="311" y="438"/>
      <point x="257" y="438" type="curve" smooth="yes"/>
      <point x="203" y="438" type="line"/>
    </contour>
    <contour>
      <point x="203" y="115" type="line"/>
      <point x="203" y="352" type="line"/>
      <point x="295" y="352" type="line" smooth="yes"/>
      <point x="395" y="352"/>
      <point x="446" y="316"/>
      <point x="446" y="225" type="curve" smooth="yes"/>
      <point x="446" y="144"/>
      <point x="397" y="115"/>
      <point x="307" y="115" type="curve" smooth="yes"/>
    </contour>
  </outline>
</glyph>
<glyph name="C" format="1">
  <advance width="745"/>
  <unicode hex="0043"/>
  <outline>
    <contour>
      <point x="194" y="705"/>
      <point x="50" y="538"/>
      <point x="50" y="348" type="curve" smooth="yes"/>
      <point x="50" y="160"/>
      <point x="196" y="-5"/>
      <point x="414" y="-5" type="curve" smooth="yes"/>
      <point x="554" y="-5"/>
      <point x="669" y="61"/>
      <point x="723" y="151" type="curve"/>
      <point x="587" y="217" type="line"/>
      <point x="545" y="142"/>
      <point x="487" y="110"/>
      <point x="414" y="110" type="curve" smooth="yes"/>
      <point x="299" y="110"/>
      <point x="214" y="206"/>
      <point x="214" y="348" type="curve" smooth="yes"/>
      <point x="214" y="492"/>
      <point x="300" y="590"/>
      <point x="414" y="590" type="curve" smooth="yes"/>
      <point x="489" y="590"/>
      <point x="548" y="556"/>
      <point x="590" y="477" type="curve"/>
      <point x="725" y="545" type="line"/>
      <point x="670" y="637"/>
      <point x="555" y="705"/>
      <point x="414" y="705" type="curve" smooth="yes"/>
    </contour>
  </outline>
</glyph>
<glyph name="D" format="1">
  <advance width="690"/>
  <unicode hex="0044"/>
  <outline>
    <contour>
      <point x="50" y="700" type="line"/>
      <point x="50" y="0" type="line"/>
      <point x="275" y="0" type="line" smooth="yes"/>
      <point x="496" y="0"/>
      <point x="655" y="109"/>
      <point x="655" y="351" type="curve" smooth="yes"/>
      <point x="655" y="599"/>
      <point x="474" y="700"/>
      <point x="260" y="700" type="curve" smooth="yes"/>
    </contour>
    <contour>
      <point x="204" y="115" type="line"/>
      <point x="204" y="585" type="line"/>
      <point x="260" y="585" type="line" smooth="yes"/>
      <point x="401" y="585"/>
      <point x="496" y="528"/>
      <point x="496" y="351" type="curve" smooth="yes"/>
      <point x="496" y="176"/>
      <point x="423" y="115"/>
      <point x="275" y="115" type="curve" smooth="yes"/>
    </contour>
  </outline>
</glyph>
<glyph name="E" format="1">
  <advance width="669"/>
  <unicode hex="0045"/>
  <outline>
    <contour>
      <point x="629" y="124" type="line"/>
      <point x="204" y="124" type="line"/>
      <point x="204" y="296" type="line"/>
      <point x="609" y="296" type="line"/>
      <point x="609" y="420" type="line"/>
      <point x="204" y="420" type="line"/>
      <point x="204" y="576" type="line"/>
      <point x="619" y="576" type="line"/>
      <point x="619" y="700" type="line"/>
      <point x="50" y="700" type="line"/>
      <point x="50" y="0" type="line"/>
      <point x="629" y="0" type="line"/>
    </contour>
  </outline>
</glyph>
<glyph name="H" format="1">
  <advance width="733"/>
  <unicode hex="0048"/>
  <outline>
    <contour>
      <point x="683" y="0" type="line"/>
      <point x="683" y="700" type="line"/>
      <point x="529" y="700" type="line"/>
      <point x="529" y="429" type="line"/>
      <point x="204" y="429" type="line"/>
      <point x="204" y="700" type="line"/>
      <point x="50" y="700" type="line"/>
      <point x="50" y="0" type="line"/>
      <point x="204" y="0" type="line"/>
      <point x="204" y="304" type="line"/>
      <point x="529" y="304" type="line"/>
      <point x="529" y="0" type="line"/>
    </contour>
  </outline>
</glyph>
<glyph name="M" format="1">
  <advance width="934"/>
  <unicode hex="004D"/>
  <outline>
    <contour>
      <point x="884" y="0" type="line"/>
      <point x="884" y="700" type="line"/>
      <point x="712" y="700" type="line"/>
      <point x="691" y="701" type="line"/>
      <point x="467" y="181" type="line"/>
      <point x="243" y="701" type="line"/>
      <point x="222" y="700" type="line"/>
      <point x="50" y="700" type="line"/>
      <point x="50" y="0" type="line"/>
      <point x="204" y="0" type="line"/>
      <point x="204" y="407" type="line"/>
      <point x="385" y="0" type="line"/>
      <point x="549" y="0" type="line"/>
      <point x="730" y="409" type="line"/>
      <point x="730" y="0" type="line"/>
    </contour>
  </outline>
</glyph>
<glyph name="N" format="1">
  <advance width="679"/>
  <unicode hex="004E"/>
  <outline>
    <contour>
      <point x="629" y="0" type="line"/>
      <point x="629" y="700" type="line"/>
      <point x="475" y="700" type="line"/>
      <point x="475" y="272" type="line"/>
      <point x="204" y="700" type="line"/>
      <point x="50" y="700" type="line"/>
      <point x="50" y="0" type="line"/>
      <point x="204" y="0" type="line"/>
      <point x="204" y="436" type="line"/>
      <point x="477" y="0" type="line"/>
    </contour>
  </outline>
</glyph>
<glyph name="O" format="1">
  <advance width="828"/>
  <unicode hex="004F"/>
  <outline>
    <contour>
      <point x="634" y="-5"/>
      <point x="778" y="160"/>
      <point x="778" y="348" type="curve" smooth="yes"/>
      <point x="778" y="538"/>
      <point x="634" y="705"/>
      <point x="414" y="705" type="curve" smooth="yes"/>
      <point x="194" y="705"/>
      <point x="50" y="538"/>
      <point x="50" y="348" type="curve" smooth="yes"/>
      <point x="50" y="160"/>
      <point x="195" y="-5"/>
      <point x="414" y="-5" type="curve" smooth="yes"/>
    </contour>
    <contour>
      <point x="289" y="110"/>
      <point x="204" y="206"/>
      <point x="204" y="348" type="curve" smooth="yes"/>
      <point x="204" y="492"/>
      <point x="290" y="590"/>
      <point x="414" y="590" type="curve" smooth="yes"/>
      <point x="539" y="590"/>
      <point x="624" y="492"/>
      <point x="624" y="348" type="curve" smooth="yes"/>
      <point x="624" y="206"/>
      <point x="539" y="110"/>
      <point x="414" y="110" type="curve" smooth="yes"/>
    </contour>
  </outline>
</glyph>
<glyph name="P" format="1">
  <advance width="501"/>
  <unicode hex="0050"/>
  <outline>
    <contour>
      <point x="31" y="700" type="line"/>
      <point x="31" y="0" type="line"/>
      <point x="185" y="0" type="line"/>
      <point x="185" y="297" type="line"/>
      <point x="248" y="297" type="line" smooth="yes"/>
      <point x="363" y="297"/>
      <point x="490" y="349"/>
      <point x="490" y="499" type="curve" smooth="yes"/>
      <point x="490" y="647"/>
      <point x="358" y="700"/>
      <point x="254" y="700" type="curve" smooth="yes"/>
    </contour>
    <contour>
      <point x="185" y="409" type="line"/>
      <point x="185" y="585" type="line"/>
      <point x="251" y="585" type="line" smooth="yes"/>
      <point x="305" y="585"/>
      <point x="346" y="563"/>
      <point x="346" y="499" type="curve" smooth="yes"/>
      <point x="346" y="434"/>
      <point x="305" y="409"/>
      <point x="248" y="409" type="curve" smooth="yes"/>
    </contour>
  </outline>
</glyph>
<glyph name="Q" format="1">
  <advance width="836"/>
  <unicode hex="0051"/>
  <outline>
    <contour>
      <point x="636" y="0" type="line"/>
      <point x="829" y="0" type="line"/>
      <point x="686" y="132" type="line"/>
      <point x="732" y="192"/>
      <point x="758" y="268"/>
      <point x="758" y="348" type="curve" smooth="yes"/>
      <point x="758" y="538"/>
      <point x="614" y="705"/>
      <point x="404" y="705" type="curve" smooth="yes"/>
      <point x="194" y="705"/>
      <point x="50" y="538"/>
      <point x="50" y="348" type="curve" smooth="yes"/>
      <point x="50" y="160"/>
      <point x="195" y="-5"/>
      <point x="404" y="-5" type="curve" smooth="yes"/>
      <point x="474" y="-5"/>
      <point x="536" y="13"/>
      <point x="588" y="44" type="curve"/>
    </contour>
    <contour>
      <point x="289" y="110"/>
      <point x="204" y="206"/>
      <point x="204" y="348" type="curve" smooth="yes"/>
      <point x="204" y="492"/>
      <point x="290" y="590"/>
      <point x="404" y="590" type="curve" smooth="yes"/>
      <point x="519" y="590"/>
      <point x="604" y="492"/>
      <point x="604" y="348" type="curve" smooth="yes"/>
      <point x="604" y="303"/>
      <point x="595" y="263"/>
      <point x="580" y="229" type="curve"/>
      <point x="484" y="317" type="line"/>
      <point x="296" y="317" type="line"/>
      <point x="494" y="132" type="line"/>
      <point x="467" y="118"/>
      <point x="437" y="110"/>
      <point x="404" y="110" type="curve" smooth="yes"/>
    </contour>
  </outline>
</glyph>
<glyph name="R" format="1">
  <advance width="665"/>
  <unicode hex="0052"/>
  <outline>
    <contour>
      <point x="482" y="0" type="line"/>
      <point x="655" y="0" type="line"/>
      <point x="431" y="352" type="line"/>
      <point x="485" y="383"/>
      <point x="522" y="433"/>
      <point x="522" y="508" type="curve" smooth="yes"/>
      <point x="522" y="647"/>
      <point x="396" y="700"/>
      <point x="273" y="700" type="curve" smooth="yes"/>
      <point x="33" y="700" type="line"/>
      <point x="33" y="0" type="line"/>
      <point x="187" y="0" type="line"/>
      <point x="187" y="316" type="line"/>
      <point x="273" y="316" type="line" smooth="yes"/>
      <point x="276" y="316"/>
      <point x="279" y="316"/>
      <point x="282" y="316" type="curve"/>
    </contour>
    <contour>
      <point x="187" y="431" type="line"/>
      <point x="187" y="585" type="line"/>
      <point x="273" y="585" type="line" smooth="yes"/>
      <point x="335" y="585"/>
      <point x="368" y="564"/>
      <point x="368" y="508" type="curve" smooth="yes"/>
      <point x="368" y="452"/>
      <point x="335" y="431"/>
      <point x="273" y="431" type="curve" smooth="yes"/>
    </contour>
  </outline>
</glyph>
<glyph name="T" format="1">
  <advance width="675"/>
  <unicode hex="0054"/>
  <outline>
    <contour>
      <point x="415" y="576" type="line"/>
      <point x="671" y="576" type="line"/>
      <point x="671" y="700" type="line"/>
      <point x="4" y="700" type="line"/>
      <point x="4" y="576" type="line"/>
      <point x="261" y="576" type="line"/>
      <point x="261" y="0" type="line"/>
      <point x="415" y="0" type="line"/>
    </contour>
  </outline>
</glyph>
<glyph name="W" format="1">
  <advance width="802"/>
  <unicode hex="0057"/>
  <outline>
    <contour>
      <point x="645" y="0" type="line"/>
      <point x="805" y="700" type="line"/>
      <point x="651" y="700" type="line"/>
      <point x="565" y="299" type="line"/>
      <point x="468" y="688" type="line"/>
      <point x="468" y="690" type="line"/>
      <point x="330" y="690" type="line"/>
      <point x="331" y="686" type="line"/>
      <point x="234" y="302" type="line"/>
      <point x="151" y="700" type="line"/>
      <point x="-3" y="700" type="line"/>
      <point x="153" y="-0" type="line"/>
      <point x="302" y="-0" type="line"/>
      <point x="399" y="403" type="line"/>
      <point x="496" y="-0" type="line"/>
    </contour>
  </outline>
</glyph>
<glyph name="X" format="1">
  <advance width="753"/>
  <unicode hex="0058"/>
  <outline>
    <contour>
      <point x="379" y="258" type="line"/>
      <point x="577" y="0" type="line"/>
      <point x="758" y="0" type="line"/>
      <point x="473" y="368" type="line"/>
      <point x="736" y="700" type="line"/>
      <point x="554" y="700" type="line"/>
      <point x="384" y="484" type="line"/>
      <point x="217" y="700" type="line"/>
      <point x="39" y="700" type="line"/>
      <point x="289" y="375" type="line"/>
      <point x="-5" y="0" type="line"/>
      <point x="176" y="0" type="line"/>
    </contour>
  </outline>
</glyph>
<glyph name="Y" format="1">
  <advance width="585"/>
  <unicode hex="0059"/>
  <outline>
    <contour>
      <point x="369" y="0" type="line"/>
      <point x="369" y="308" type="line"/>
      <point x="594" y="700" type="line"/>
      <point x="436" y="700" type="line"/>
      <point x="292" y="435" type="line"/>
      <point x="149" y="700" type="line"/>
      <point x="-9" y="700" type="line"/>
      <point x="215" y="308" type="line"/>
      <point x="215" y="0" type="line"/>
    </contour>
  </outline>
</glyph>
<glyph name="Z" format="1">
  <advance width="615"/>
  <unicode hex="005A"/>
  <outline>
    <contour>
      <point x="592" y="576" type="line"/>
      <point x="592" y="700" type="line"/>
      <point x="45" y="700" type="line"/>
      <point x="45" y="576" type="line"/>
      <point x="399" y="576" type="line"/>
      <point x="31" y="125" type="line"/>
      <point x="23" y="125" type="line"/>
      <point x="23" y="0" type="line"/>
      <point x="588" y="0" type="line"/>
      <point x="588" y="125" type="line"/>
      <point x="215" y="125" type="line"/>
      <point x="584" y="576" type="line"/>
    </contour>
  </outline>
</glyph>
<glyph name="bracketleft" format="1">
  <advance width="500"/>
  <unicode hex="005B"/>
  <outline>
    <contour>
      <point x="287" y="-20" type="line"/>
      <point x="287" y="683" type="line"/>
      <point x="424" y="683" type="line"/>
      <point x="424" y="811" type="line"/>
      <point x="126" y="811" type="line"/>
      <point x="126" y="-148" type="line"/>
      <point x="424" y="-148" type="line"/>
      <point x="424" y="-20" type="line"/>
    </contour>
  </outline>
</glyph>
<glyph name="asciicircum" format="1">
  <advance width="600"/>
  <unicode hex="005E"/>
  <outline>
    <contour>
      <point x="304" y="438" type="line"/>
      <point x="406" y="233" type="line"/>
      <point x="549" y="233" type="line"/>
      <point x="304" y="714" type="line"/>
      <point x="59" y="233" type="line"/>
      <point x="202" y="233" type="line"/>
    </contour>
  </outline>
</glyph>
<glyph name="grave" format="1">
  <advance width="600"/>
  <unicode hex="0060"/>
  <outline>
    <contour>
      <point x="214" y="790" type="line"/>
      <point x="137" y="662" type="line"/>
      <point x="309" y="555" type="line"/>
      <point x="427" y="591" type="line"/>
    </contour>
  </outline>
</glyph>
<glyph name="b" format="1">
  <advance width="638"/>
  <unicode hex="0062"/>
  <outline>
    <contour>
      <point x="278" y="512"/>
      <point x="226" y="495"/>
      <point x="188" y="467" type="curve"/>
      <point x="188" y="693" type="line"/>
      <point x="35" y="693" type="line"/>
      <point x="36" y="-0" type="line"/>
      <point x="188" y="-0" type="line"/>
      <point x="188" y="34" type="line"/>
      <point x="226" y="7"/>
      <point x="277" y="-9"/>
      <point x="344" y="-9" type="curve" smooth="yes"/>
      <point x="504" y="-9"/>
      <point x="608" y="111"/>
      <point x="608" y="252" type="curve" smooth="yes"/>
      <point x="608" y="394"/>
      <point x="503" y="512"/>
      <point x="344" y="512" type="curve" smooth="yes"/>
    </contour>
    <contour>
      <point x="235" y="102"/>
      <point x="178" y="153"/>
      <point x="178" y="252" type="curve" smooth="yes"/>
      <point x="178" y="350"/>
      <point x="235" y="402"/>
      <point x="324" y="402" type="curve" smooth="yes"/>
      <point x="407" y="402"/>
      <point x="455" y="341"/>
      <point x="455" y="252" type="curve" smooth="yes"/>
      <point x="455" y="162"/>
      <point x="407" y="102"/>
      <point x="324" y="102" type="curve" smooth="yes"/>
    </contour>
  </outline>
</glyph>
<glyph name="c" format="1">
  <advance width="599"/>
  <unicode hex="0063"/>
  <outline>
    <contour>
      <point x="565" y="365" type="line"/>
      <point x="537" y="452"/>
      <point x="448" y="511"/>
      <point x="318" y="511" type="curve" smooth="yes"/>
      <point x="154" y="511"/>
      <point x="30" y="413"/>
      <point x="30" y="245" type="curve" smooth="yes"/>
      <point x="30" y="78"/>
      <point x="165" y="-12"/>
      <point x="312" y="-12" type="curve" smooth="yes"/>
      <point x="445" y="-12"/>
      <point x="541" y="56"/>
      <point x="569" y="156" type="curve"/>
      <point x="433" y="213" type="line"/>
      <point x="431" y="143"/>
      <point x="408" y="95"/>
      <point x="312" y="95" type="curve" smooth="yes"/>
      <point x="248" y="95"/>
      <point x="189" y="141"/>
      <point x="189" y="245" type="curve" smooth="yes"/>
      <point x="189" y="350"/>
      <point x="238" y="406"/>
      <point x="318" y="406" type="curve" smooth="yes"/>
      <point x="394" y="406"/>
      <point x="429" y="371"/>
      <point x="438" y="295" type="curve"/>
    </contour>
  </outline>
</glyph>
<glyph name="d" format="1">
  <advance width="638"/>
  <unicode hex="0064"/>
  <outline>
    <contour>
      <point x="603" y="693" type="line"/>
      <point x="450" y="693" type="line"/>
      <point x="450" y="467" type="line"/>
      <point x="412" y="495"/>
      <point x="361" y="512"/>
      <point x="295" y="512" type="curve" smooth="yes"/>
      <point x="135" y="512"/>
      <point x="30" y="394"/>
      <point x="30" y="252" type="curve" smooth="yes"/>
      <point x="30" y="111"/>
      <point x="134" y="-9"/>
      <point x="294" y="-9" type="curve" smooth="yes"/>
      <point x="362" y="-9"/>
      <point x="412" y="8"/>
      <point x="450" y="34" type="curve"/>
      <point x="450" y="-0" type="line"/>
      <point x="602" y="-0" type="line"/>
    </contour>
    <contour>
      <point x="183" y="341"/>
      <point x="231" y="402"/>
      <point x="314" y="402" type="curve" smooth="yes"/>
      <point x="403" y="402"/>
      <point x="460" y="350"/>
      <point x="460" y="252" type="curve" smooth="yes"/>
      <point x="460" y="153"/>
      <point x="403" y="102"/>
      <point x="314" y="102" type="curve" smooth="yes"/>
      <point x="231" y="102"/>
      <point x="183" y="162"/>
      <point x="183" y="252" type="curve" smooth="yes"/>
    </contour>
  </outline>
</glyph>
<glyph name="f" format="1">
  <advance width="367"/>
  <unicode hex="0066"/>
  <outline>
    <contour>
      <point x="106" y="738"/>
      <point x="28" y="674"/>
      <point x="28" y="586" type="curve" smooth="yes"/>
      <point x="28" y="533"/>
      <point x="59" y="509"/>
      <point x="73" y="501" type="curve"/>
      <point x="-13" y="501" type="line"/>
      <point x="-13" y="385" type="line"/>
      <point x="75" y="385" type="line"/>
      <point x="74" y="0" type="line"/>
      <point x="226" y="0" type="line"/>
      <point x="226" y="385" type="line"/>
      <point x="382" y="385" type="line"/>
      <point x="382" y="501" type="line"/>
      <point x="254" y="501" type="line" smooth="yes"/>
      <point x="198" y="501"/>
      <point x="168" y="538"/>
      <point x="168" y="572" type="curve" smooth="yes"/>
      <point x="168" y="616"/>
      <point x="195" y="644"/>
      <point x="247" y="644" type="curve" smooth="yes"/>
      <point x="305" y="644"/>
      <point x="323" y="593"/>
      <point x="332" y="577" type="curve"/>
      <point x="462" y="632" type="line"/>
      <point x="446" y="657"/>
      <point x="376" y="738"/>
      <point x="247" y="738" type="curve" smooth="yes"/>
    </contour>
  </outline>
</glyph>
<glyph name="g" format="1">
  <advance width="633"/>
  <unicode hex="0067"/>
  <outline>
    <contour>
      <point x="602" y="500" type="line"/>
      <point x="450" y="500" type="line"/>
      <point x="450" y="454" type="line"/>
      <point x="413" y="487"/>
      <point x="362" y="509"/>
      <point x="294" y="509" type="curve" smooth="yes"/>
      <point x="134" y="509"/>
      <point x="30" y="389"/>
      <point x="30" y="248" type="curve" smooth="yes"/>
      <point x="30" y="106"/>
      <point x="135" y="-12"/>
      <point x="294" y="-12" type="curve" smooth="yes"/>
      <point x="362" y="-12"/>
      <point x="413" y="10"/>
      <point x="450" y="43" type="curve"/>
      <point x="450" y="8" type="line" smooth="yes"/>
      <point x="450" y="-95"/>
      <point x="398" y="-149"/>
      <point x="317" y="-149" type="curve" smooth="yes"/>
      <point x="241" y="-149"/>
      <point x="215" y="-112"/>
      <point x="196" y="-58" type="curve"/>
      <point x="51" y="-86" type="line"/>
      <point x="70" y="-170"/>
      <point x="151" y="-260"/>
      <point x="317" y="-260" type="curve" smooth="yes"/>
      <point x="485" y="-260"/>
      <point x="603" y="-159"/>
      <point x="603" y="8" type="curve"/>
    </contour>
    <contour>
      <point x="231" y="98"/>
      <point x="183" y="159"/>
      <point x="183" y="248" type="curve" smooth="yes"/>
      <point x="183" y="338"/>
      <point x="231" y="398"/>
      <point x="314" y="398" type="curve" smooth="yes"/>
      <point x="403" y="398"/>
      <point x="460" y="347"/>
      <point x="460" y="248" type="curve" smooth="yes"/>
      <point x="460" y="150"/>
      <point x="403" y="98"/>
      <point x="314" y="98" type="curve" smooth="yes"/>
    </contour>
  </outline>
</glyph>
<glyph name="h" format="1">
  <advance width="576"/>
  <unicode hex="0068"/>
  <outline>
    <contour>
      <point x="264" y="511"/>
      <point x="221" y="496"/>
      <point x="187" y="471" type="curve"/>
      <point x="187" y="696" type="line"/>
      <point x="35" y="696" type="line"/>
      <point x="35" y="4" type="line"/>
      <point x="187" y="4" type="line"/>
      <point x="187" y="253" type="line" smooth="yes"/>
      <point x="191" y="360"/>
      <point x="256" y="403"/>
      <point x="306" y="403" type="curve" smooth="yes"/>
      <point x="368" y="403"/>
      <point x="389" y="364"/>
      <point x="389" y="298" type="curve" smooth="yes"/>
      <point x="389" y="4" type="line"/>
      <point x="541" y="4" type="line"/>
      <point x="541" y="298" type="line" smooth="yes"/>
      <point x="541" y="395"/>
      <point x="499" y="511"/>
      <point x="317" y="511" type="curve" smooth="yes"/>
    </contour>
  </outline>
</glyph>
<glyph name="j" format="1">
  <advance width="248"/>
  <unicode hex="006A"/>
  <outline>
    <contour>
      <point x="43" y="576" type="line"/>
      <point x="195" y="576" type="line"/>
      <point x="195" y="700" type="line"/>
      <point x="43" y="700" type="line"/>
    </contour>
    <contour>
      <point x="195" y="500" type="line"/>
      <point x="43" y="500" type="line"/>
      <point x="43" y="-52" type="line" smooth="yes"/>
      <point x="43" y="-102"/>
      <point x="30" y="-148"/>
      <point x="-15" y="-148" type="curve" smooth="yes"/>
      <point x="-47" y="-148"/>
      <point x="-74" y="-117"/>
      <point x="-80" y="-93" type="curve"/>
      <point x="-212" y="-156" type="line"/>
      <point x="-193" y="-183"/>
      <point x="-142" y="-252"/>
      <point x="-15" y="-252" type="curve" smooth="yes"/>
      <point x="169" y="-252"/>
      <point x="195" y="-111"/>
      <point x="195" y="-52" type="curve" smooth="yes"/>
    </contour>
  </outline>
</glyph>
<glyph name="k" format="1">
  <advance width="511"/>
  <unicode hex="006B"/>
  <outline>
    <contour>
      <point x="177" y="179" type="line"/>
      <point x="219" y="222" type="line"/>
      <point x="366" y="-0" type="line"/>
      <point x="536" y="-0" type="line"/>
      <point x="321" y="327" type="line"/>
      <point x="488" y="500" type="line"/>
      <point x="309" y="500" type="line"/>
      <point x="177" y="360" type="line"/>
      <point x="177" y="700" type="line"/>
      <point x="25" y="700" type="line"/>
      <point x="25" y="0" type="line"/>
      <point x="177" y="0" type="line"/>
    </contour>
  </outline>
</glyph>
<glyph name="l" format="1">
  <advance width="248"/>
  <unicode hex="006C"/>
  <outline>
    <contour>
      <point x="48" y="700" type="line"/>
      <point x="48" y="0" type="line"/>
      <point x="200" y="0" type="line"/>
      <point x="200" y="700" type="line"/>
    </contour>
  </outline>
</glyph>
<glyph name="m" format="1">
  <advance width="921"/>
  <unicode hex="006D"/>
  <outline>
    <contour>
      <point x="586" y="510"/>
      <point x="533" y="474"/>
      <point x="503" y="420" type="curve"/>
      <point x="472" y="472"/>
      <point x="414" y="510"/>
      <point x="312" y="510" type="curve" smooth="yes"/>
      <point x="253" y="510"/>
      <point x="212" y="489"/>
      <point x="184" y="456" type="curve"/>
      <point x="184" y="500" type="line"/>
      <point x="32" y="500" type="line"/>
      <point x="32" y="-0" type="line"/>
      <point x="184" y="-0" type="line"/>
      <point x="184" y="249" type="line" smooth="yes"/>
      <point x="188" y="357"/>
      <point x="253" y="399"/>
      <point x="301" y="399" type="curve" smooth="yes"/>
      <point x="362" y="399"/>
      <point x="382" y="361"/>
      <point x="382" y="294" type="curve" smooth="yes"/>
      <point x="382" y="0" type="line"/>
      <point x="534" y="0" type="line"/>
      <point x="534" y="248" type="line" smooth="yes"/>
      <point x="538" y="357"/>
      <point x="604" y="399"/>
      <point x="654" y="399" type="curve" smooth="yes"/>
      <point x="716" y="399"/>
      <point x="737" y="361"/>
      <point x="737" y="294" type="curve" smooth="yes"/>
      <point x="737" y="-0" type="line"/>
      <point x="889" y="-0" type="line"/>
      <point x="889" y="294" type="line" smooth="yes"/>
      <point x="889" y="391"/>
      <point x="847" y="510"/>
      <point x="665" y="510" type="curve" smooth="yes"/>
    </contour>
  </outline>
</glyph>
<glyph name="n" format="1">
  <advance width="560"/>
  <unicode hex="006E"/>
  <outline>
    <contour>
      <point x="251" y="507"/>
      <point x="208" y="486"/>
      <point x="177" y="453" type="curve"/>
      <point x="177" y="500" type="line"/>
      <point x="25" y="500" type="line"/>
      <point x="25" y="0" type="line"/>
      <point x="177" y="0" type="line"/>
      <point x="177" y="264" type="line"/>
      <point x="186" y="361"/>
      <point x="248" y="399"/>
      <point x="296" y="399" type="curve" smooth="yes"/>
      <point x="358" y="399"/>
      <point x="379" y="361"/>
      <point x="379" y="294" type="curve" smooth="yes"/>
      <point x="379" y="0" type="line"/>
      <point x="531" y="0" type="line"/>
      <point x="531" y="294" type="line" smooth="yes"/>
      <point x="531" y="391"/>
      <point x="489" y="507"/>
      <point x="307" y="507" type="curve" smooth="yes"/>
    </contour>
  </outline>
</glyph>
<glyph name="o" format="1">
  <advance width="564"/>
  <unicode hex="006F"/>
  <outline>
    <contour>
      <point x="438" y="-12"/>
      <point x="544" y="108"/>
      <point x="544" y="247" type="curve" smooth="yes"/>
      <point x="544" y="387"/>
      <point x="438" y="510"/>
      <point x="282" y="510" type="curve" smooth="yes"/>
      <point x="126" y="510"/>
      <point x="20" y="387"/>
      <point x="20" y="247" type="curve" smooth="yes"/>
      <point x="20" y="108"/>
      <point x="126" y="-12"/>
      <point x="282" y="-12" type="curve" smooth="yes"/>
    </contour>
    <contour>
      <point x="219" y="93"/>
      <point x="170" y="153"/>
      <point x="170" y="247" type="curve" smooth="yes"/>
      <point x="170" y="342"/>
      <point x="219" y="402"/>
      <point x="282" y="402" type="curve" smooth="yes"/>
      <point x="345" y="402"/>
      <point x="394" y="342"/>
      <point x="394" y="247" type="curve" smooth="yes"/>
      <point x="394" y="153"/>
      <point x="345" y="93"/>
      <point x="282" y="93" type="curve" smooth="yes"/>
    </contour>
  </outline>
</glyph>
<glyph name="p" format="1">
  <advance width="638"/>
  <unicode hex="0070"/>
  <outline>
    <contour>
      <point x="277" y="506"/>
      <point x="226" y="490"/>
      <point x="188" y="463" type="curve"/>
      <point x="188" y="500" type="line"/>
      <point x="36" y="500" type="line"/>
      <point x="35" y="-200" type="line"/>
      <point x="188" y="-200" type="line"/>
      <point x="188" y="30" type="line"/>
      <point x="226" y="2"/>
      <point x="278" y="-15"/>
      <point x="344" y="-15" type="curve" smooth="yes"/>
      <point x="503" y="-15"/>
      <point x="608" y="103"/>
      <point x="608" y="245" type="curve" smooth="yes"/>
      <point x="608" y="386"/>
      <point x="504" y="506"/>
      <point x="344" y="506" type="curve" smooth="yes"/>
    </contour>
    <contour>
      <point x="235" y="95"/>
      <point x="178" y="147"/>
      <point x="178" y="245" type="curve" smooth="yes"/>
      <point x="178" y="344"/>
      <point x="235" y="395"/>
      <point x="324" y="395" type="curve" smooth="yes"/>
      <point x="407" y="395"/>
      <point x="455" y="335"/>
      <point x="455" y="245" type="curve" smooth="yes"/>
      <point x="455" y="156"/>
      <point x="407" y="95"/>
      <point x="324" y="95" type="curve" smooth="yes"/>
    </contour>
  </outline>
</glyph>
<glyph name="r" format="1">
  <advance width="497"/>
  <unicode hex="0072"/>
  <outline>
    <contour>
      <point x="255" y="510"/>
      <point x="210" y="479"/>
      <point x="182" y="433" type="curve"/>
      <point x="182" y="500" type="line"/>
      <point x="30" y="500" type="line"/>
      <point x="30" y="0" type="line"/>
      <point x="182" y="0" type="line"/>
      <point x="182" y="259" type="line" smooth="yes"/>
      <point x="185" y="360"/>
      <point x="217" y="399"/>
      <point x="272" y="399" type="curve" smooth="yes"/>
      <point x="313" y="399"/>
      <point x="341" y="374"/>
      <point x="336" y="325" type="curve"/>
      <point x="486" y="325" type="line"/>
      <point x="495" y="415"/>
      <point x="431" y="510"/>
      <point x="313" y="510" type="curve" smooth="yes"/>
    </contour>
  </outline>
</glyph>
<glyph name="t" format="1">
  <advance width="459"/>
  <unicode hex="0074"/>
  <outline>
    <contour>
      <point x="349" y="175" type="line"/>
      <point x="328" y="136"/>
      <point x="314" y="97"/>
      <point x="280" y="97" type="curve" smooth="yes"/>
      <point x="252" y="97"/>
      <point x="233" y="119"/>
      <point x="233" y="164" type="curve" smooth="yes"/>
      <point x="233" y="388" type="line"/>
      <point x="379" y="388" type="line"/>
      <point x="379" y="504" type="line"/>
      <point x="233" y="504" type="line"/>
      <point x="233" y="696" type="line"/>
      <point x="81" y="696" type="line"/>
      <point x="81" y="504" type="line"/>
      <point x="-6" y="504" type="line"/>
      <point x="-6" y="388" type="line"/>
      <point x="81" y="388" type="line"/>
      <point x="81" y="162" type="line" smooth="yes"/>
      <point x="81" y="73"/>
      <point x="129" y="-8"/>
      <point x="280" y="-8" type="curve" smooth="yes"/>
      <point x="383" y="-8"/>
      <point x="438" y="54"/>
      <point x="465" y="108" type="curve"/>
    </contour>
  </outline>
</glyph>
<glyph name="u" format="1">
  <advance width="566"/>
  <unicode hex="0075"/>
  <outline>
    <contour>
      <point x="536" y="0" type="line"/>
      <point x="536" y="500" type="line"/>
      <point x="384" y="500" type="line"/>
      <point x="384" y="252" type="line" smooth="yes"/>
      <point x="381" y="126"/>
      <point x="319" y="101"/>
      <point x="265" y="101" type="curve" smooth="yes"/>
      <point x="203" y="101"/>
      <point x="182" y="139"/>
      <point x="182" y="206" type="curve" smooth="yes"/>
      <point x="182" y="500" type="line"/>
      <point x="30" y="500" type="line"/>
      <point x="30" y="206" type="line" smooth="yes"/>
      <point x="30" y="109"/>
      <point x="72" y="-7"/>
      <point x="254" y="-7" type="curve" smooth="yes"/>
      <point x="314" y="-7"/>
      <point x="356" y="15"/>
      <point x="384" y="51" type="curve"/>
      <point x="384" y="0" type="line"/>
    </contour>
  </outline>
</glyph>
<glyph name="v" format="1">
  <advance width="592"/>
  <unicode hex="0076"/>
  <outline>
    <contour>
      <point x="376" y="0" type="line"/>
      <point x="577" y="500" type="line"/>
      <point x="426" y="500" type="line"/>
      <point x="296" y="168" type="line"/>
      <point x="166" y="500" type="line"/>
      <point x="15" y="500" type="line"/>
      <point x="216" y="0" type="line"/>
    </contour>
  </outline>
</glyph>
<glyph name="w" format="1">
  <advance width="724"/>
  <unicode hex="0077"/>
  <outline>
    <contour>
      <point x="566" y="0" type="line"/>
      <point x="709" y="500" type="line"/>
      <point x="557" y="500" type="line"/>
      <point x="493" y="259" type="line"/>
      <point x="429" y="500" type="line"/>
      <point x="295" y="500" type="line"/>
      <point x="231" y="259" type="line"/>
      <point x="167" y="500" type="line"/>
      <point x="15" y="500" type="line"/>
      <point x="158" y="0" type="line"/>
      <point x="305" y="0" type="line"/>
      <point x="362" y="227" type="line"/>
      <point x="419" y="0" type="line"/>
    </contour>
  </outline>
</glyph>
<glyph name="x" format="1">
  <advance width="600"/>
  <unicode hex="0078"/>
  <outline>
    <contour>
      <point x="292" y="144" type="line"/>
      <point x="403" y="0" type="line"/>
      <point x="582" y="0" type="line"/>
      <point x="386" y="254" type="line"/>
      <point x="579" y="500" type="line"/>
      <point x="399" y="500" type="line"/>
      <point x="296" y="369" type="line"/>
      <point x="195" y="500" type="line"/>
      <point x="18" y="500" type="line"/>
      <point x="203" y="260" type="line"/>
      <point x="-1" y="0" type="line"/>
      <point x="179" y="0" type="line"/>
    </contour>
  </outline>
</glyph>
<glyph name="y" format="1">
  <advance width="578"/>
  <unicode hex="0079"/>
  <outline>
    <contour>
      <point x="278" y="-200" type="line"/>
      <point x="563" y="500" type="line"/>
      <point x="407" y="500" type="line"/>
      <point x="304" y="247" type="line"/>
      <point x="182" y="500" type="line"/>
      <point x="15" y="500" type="line"/>
      <point x="229" y="65" type="line"/>
      <point x="121" y="-200" type="line"/>
    </contour>
  </outline>
</glyph>
<glyph name="z" format="1">
  <advance width="521"/>
  <unicode hex="007A"/>
  <outline>
    <contour>
      <point x="501" y="0" type="line"/>
      <point x="501" y="115" type="line"/>
      <point x="209" y="115" type="line"/>
      <point x="483" y="395" type="line"/>
      <point x="483" y="500" type="line"/>
      <point x="35" y="500" type="line"/>
      <point x="35" y="385" type="line"/>
      <point x="294" y="385" type="line"/>
      <point x="20" y="105" type="line"/>
      <point x="20" y="0" type="line"/>
    </contour>
  </outline>
</glyph>
<glyph name="braceleft" format="1">
  <advance width="512"/>
  <unicode hex="007B"/>
  <outline>
    <contour>
      <point x="384" y="784" type="line"/>
      <point x="253" y="811"/>
      <point x="171" y="746"/>
      <point x="171" y="613" type="curve" smooth="yes"/>
      <point x="171" y="518"/>
      <point x="234" y="421"/>
      <point x="225" y="397" type="curve" smooth="yes"/>
      <point x="214" y="366"/>
      <point x="180" y="374"/>
      <point x="128" y="373" type="curve"/>
      <point x="128" y="244" type="line"/>
      <point x="182" y="243"/>
      <point x="213" y="250"/>
      <point x="224" y="220" type="curve" smooth="yes"/>
      <point x="233" y="196"/>
      <point x="171" y="99"/>
      <point x="171" y="4" type="curve" smooth="yes"/>
      <point x="171" y="-129"/>
      <point x="253" y="-193"/>
      <point x="384" y="-166" type="curve"/>
      <point x="384" y="-59" type="line"/>
      <point x="328" y="-76"/>
      <point x="327" y="-51"/>
      <point x="327" y="4" type="curve" smooth="yes"/>
      <point x="327" y="95"/>
      <point x="379" y="181"/>
      <point x="351" y="257" type="curve" smooth="yes"/>
      <point x="343" y="279"/>
      <point x="329" y="296"/>
      <point x="312" y="309" type="curve"/>
      <point x="329" y="322"/>
      <point x="343" y="339"/>
      <point x="351" y="361" type="curve" smooth="yes"/>
      <point x="379" y="437"/>
      <point x="327" y="523"/>
      <point x="327" y="613" type="curve" smooth="yes"/>
      <point x="327" y="669"/>
      <point x="328" y="694"/>
      <point x="384" y="677" type="curve"/>
    </contour>
  </outline>
</glyph>
<glyph name="braceright" format="1">
  <advance width="512"/>
  <unicode hex="007D"/>
  <outline>
    <contour>
      <point x="144" y="677" type="line"/>
      <point x="200" y="694"/>
      <point x="201" y="669"/>
      <point x="201" y="613" type="curve" smooth="yes"/>
      <point x="201" y="523"/>
      <point x="149" y="437"/>
      <point x="177" y="361" type="curve" smooth="yes"/>
      <point x="185" y="339"/>
      <point x="199" y="322"/>
      <point x="216" y="309" type="curve"/>
      <point x="199" y="296"/>
      <point x="185" y="279"/>
      <point x="177" y="257" type="curve" smooth="yes"/>
      <point x="149" y="181"/>
      <point x="201" y="95"/>
      <point x="201" y="4" type="curve" smooth="yes"/>
      <point x="201" y="-51"/>
      <point x="200" y="-76"/>
      <point x="144" y="-59" type="curve"/>
      <point x="144" y="-166" type="line"/>
      <point x="275" y="-193"/>
      <point x="357" y="-129"/>
      <point x="357" y="4" type="curve" smooth="yes"/>
      <point x="357" y="99"/>
      <point x="295" y="196"/>
      <point x="304" y="220" type="curve" smooth="yes"/>
      <point x="315" y="250"/>
      <point x="346" y="243"/>
      <point x="400" y="244" type="curve"/>
      <point x="400" y="373" type="line"/>
      <point x="348" y="374"/>
      <point x="314" y="366"/>
      <point x="303" y="397" type="curve" smooth="yes"/>
      <point x="294" y="421"/>
      <point x="357" y="518"/>
      <point x="357" y="613" type="curve" smooth="yes"/>
      <point x="357" y="746"/>
      <point x="275" y="811"/>
      <point x="144" y="784" type="curve"/>
    </contour>
  </outline>
</glyph>
<glyph name="exclamdown" format="1">
  <advance width="310"/>
  <unicode hex="00A1"/>
  <outline>
    <contour>
      <point x="244" y="541" type="line"/>
      <point x="66" y="541" type="line"/>
      <point x="66" y="393" type="line"/>
      <point x="244" y="393" type="line"/>
    </contour>
    <contour>
      <point x="243" y="-36" type="line"/>
      <point x="223" y="343" type="line"/>
      <point x="87" y="343" type="line"/>
      <point x="66" y="-36" type="line"/>
      <point x="66" y="-189" type="line"/>
      <point x="244" y="-189" type="line"/>
    </contour>
  </outline>
</glyph>
<glyph name="cent" format="1">
  <advance width="549"/>
  <unicode hex="00A2"/>
  <outline>
    <contour>
      <point x="433" y="310" type="line"/>
      <point x="431" y="247"/>
      <point x="413" y="202"/>
      <point x="340" y="194" type="curve"/>
      <point x="340" y="502" type="line"/>
      <point x="401" y="495"/>
      <point x="430" y="460"/>
      <point x="438" y="392" type="curve"/>
      <point x="565" y="462" type="line"/>
      <point x="539" y="544"/>
      <point x="458" y="601"/>
      <point x="340" y="607" type="curve"/>
      <point x="340" y="700" type="line"/>
      <point x="296" y="700" type="line"/>
      <point x="296" y="607" type="line"/>
      <point x="143" y="599"/>
      <point x="30" y="502"/>
      <point x="30" y="342" type="curve" smooth="yes"/>
      <point x="30" y="181"/>
      <point x="155" y="92"/>
      <point x="296" y="85" type="curve"/>
      <point x="296" y="0" type="line"/>
      <point x="340" y="0" type="line"/>
      <point x="340" y="86" type="line"/>
      <point x="458" y="95"/>
      <point x="543" y="160"/>
      <point x="569" y="253" type="curve"/>
    </contour>
    <contour>
      <point x="189" y="437"/>
      <point x="229" y="492"/>
      <point x="296" y="501" type="curve"/>
      <point x="296" y="193" type="line"/>
      <point x="238" y="200"/>
      <point x="189" y="247"/>
      <point x="189" y="342" type="curve" smooth="yes"/>
    </contour>
  </outline>
</glyph>
<glyph name="sterling" format="1">
  <advance width="581"/>
  <unicode hex="00A3"/>
  <outline>
    <contour>
      <point x="569" y="0" type="line"/>
      <point x="569" y="125" type="line"/>
      <point x="277" y="125" type="line"/>
      <point x="297" y="163"/>
      <point x="303" y="205"/>
      <point x="303" y="241" type="curve" smooth="yes"/>
      <point x="303" y="311" type="line"/>
      <point x="411" y="311" type="line"/>
      <point x="411" y="428" type="line"/>
      <point x="303" y="428" type="line"/>
      <point x="303" y="522" type="line" smooth="yes"/>
      <point x="303" y="572"/>
      <point x="316" y="618"/>
      <point x="362" y="618" type="curve" smooth="yes"/>
      <point x="413" y="618"/>
      <point x="428" y="586"/>
      <point x="440" y="543" type="curve"/>
      <point x="561" y="626" type="line"/>
      <point x="541" y="654"/>
      <point x="490" y="723"/>
      <point x="362" y="723" type="curve" smooth="yes"/>
      <point x="176" y="723"/>
      <point x="150" y="580"/>
      <point x="150" y="522" type="curve" smooth="yes"/>
      <point x="150" y="428" type="line"/>
      <point x="71" y="428" type="line"/>
      <point x="71" y="311" type="line"/>
      <point x="150" y="311" type="line"/>
      <point x="150" y="241" type="line" smooth="yes"/>
      <point x="150" y="145"/>
      <point x="132" y="126"/>
      <point x="80" y="125" type="curve" smooth="yes"/>
      <point x="55" y="125" type="line"/>
      <point x="55" y="-0" type="line"/>
    </contour>
  </outline>
</glyph>
<glyph name="yen" format="1">
  <advance width="585"/>
  <unicode hex="00A5"/>
  <outline>
    <contour>
      <point x="420" y="397" type="line"/>
      <point x="594" y="700" type="line"/>
      <point x="436" y="700" type="line"/>
      <point x="292" y="435" type="line"/>
      <point x="149" y="700" type="line"/>
      <point x="-9" y="700" type="line"/>
      <point x="164" y="397" type="line"/>
      <point x="90" y="397" type="line"/>
      <point x="90" y="310" type="line"/>
      <point x="214" y="310" type="line"/>
      <point x="215" y="308" type="line"/>
      <point x="215" y="258" type="line"/>
      <point x="90" y="258" type="line"/>
      <point x="90" y="171" type="line"/>
      <point x="215" y="171" type="line"/>
      <point x="215" y="-0" type="line"/>
      <point x="369" y="-0" type="line"/>
      <point x="369" y="171" type="line"/>
      <point x="507" y="171" type="line"/>
      <point x="507" y="258" type="line"/>
      <point x="369" y="258" type="line"/>
      <point x="369" y="308" type="line"/>
      <point x="370" y="310" type="line"/>
      <point x="507" y="310" type="line"/>
      <point x="507" y="397" type="line"/>
    </contour>
  </outline>
</glyph>
<glyph name="brokenbar" format="1">
  <advance width="314"/>
  <unicode hex="00A6"/>
  <outline>
    <contour>
      <point x="77" y="813" type="line"/>
      <point x="77" y="428" type="line"/>
      <point x="238" y="428" type="line"/>
      <point x="238" y="813" type="line"/>
    </contour>
    <contour>
      <point x="77" y="240" type="line"/>
      <point x="77" y="-146" type="line"/>
      <point x="238" y="-146" type="line"/>
      <point x="238" y="240" type="line"/>
    </contour>
  </outline>
</glyph>
<glyph name="section" format="1">
  <advance width="572"/>
  <unicode hex="00A7"/>
  <outline>
    <contour>
      <point x="573" y="352"/>
      <point x="404" y="396"/>
      <point x="318" y="423" type="curve" smooth="yes"/>
      <point x="237" y="447"/>
      <point x="207" y="476"/>
      <point x="207" y="521" type="curve" smooth="yes"/>
      <point x="207" y="568"/>
      <point x="242" y="599"/>
      <point x="296" y="599" type="curve" smooth="yes"/>
      <point x="359" y="599"/>
      <point x="390" y="569"/>
      <point x="382" y="504" type="curve"/>
      <point x="538" y="544" type="line"/>
      <point x="527" y="649"/>
      <point x="414" y="709"/>
      <point x="296" y="709" type="curve" smooth="yes"/>
      <point x="158" y="709"/>
      <point x="51" y="621"/>
      <point x="51" y="521" type="curve" smooth="yes"/>
      <point x="51" y="480"/>
      <point x="67" y="443"/>
      <point x="97" y="411" type="curve"/>
      <point x="68" y="380"/>
      <point x="51" y="341"/>
      <point x="51" y="302" type="curve" smooth="yes"/>
      <point x="51" y="211"/>
      <point x="131" y="138"/>
      <point x="273" y="96" type="curve" smooth="yes"/>
      <point x="351" y="72"/>
      <point x="417" y="55"/>
      <point x="417" y="-9" type="curve" smooth="yes"/>
      <point x="417" y="-75"/>
      <point x="383" y="-115"/>
      <point x="301" y="-115" type="curve" smooth="yes"/>
      <point x="189" y="-115"/>
      <point x="151" y="-56"/>
      <point x="135" y="48" type="curve"/>
      <point x="-8" y="-24" type="line"/>
      <point x="28" y="-135"/>
      <point x="119" y="-227"/>
      <point x="301" y="-227" type="curve" smooth="yes"/>
      <point x="487" y="-227"/>
      <point x="573" y="-119"/>
      <point x="573" y="-9" type="curve" smooth="yes"/>
      <point x="573" y="33"/>
      <point x="558" y="66"/>
      <point x="536" y="93" type="curve"/>
      <point x="561" y="128"/>
      <point x="573" y="169"/>
      <point x="573" y="210" type="curve" smooth="yes"/>
    </contour>
    <contour>
      <point x="207" y="314"/>
      <point x="210" y="326"/>
      <point x="214" y="336" type="curve"/>
      <point x="232" y="328"/>
      <point x="252" y="321"/>
      <point x="273" y="315" type="curve" smooth="yes"/>
      <point x="351" y="291"/>
      <point x="417" y="274"/>
      <point x="417" y="210" type="curve" smooth="yes"/>
      <point x="417" y="196"/>
      <point x="416" y="184"/>
      <point x="412" y="172" type="curve"/>
      <point x="378" y="186"/>
      <point x="344" y="196"/>
      <point x="318" y="204" type="curve" smooth="yes"/>
      <point x="237" y="228"/>
      <point x="207" y="257"/>
      <point x="207" y="302" type="curve" smooth="yes"/>
    </contour>
  </outline>
</glyph>
<glyph name="dieresis" format="1">
  <advance width="556"/>
  <unicode hex="00A8"/>
  <outline>
    <contour>
      <point x="77" y="698" type="line"/>
      <point x="77" y="574" type="line"/>
      <point x="231" y="574" type="line"/>
      <point x="231" y="698" type="line"/>
    </contour>
    <contour>
      <point x="325" y="698" type="line"/>
      <point x="325" y="574" type="line"/>
      <point x="479" y="574" type="line"/>
      <point x="479" y="698" type="line"/>
    </contour>
  </outline>
</glyph>
<glyph name="copyright" format="1">
  <advance width="808"/>
  <unicode hex="00A9"/>
  <outline>
    <contour>
      <point x="644" y="-4"/>
      <point x="802" y="175"/>
      <point x="802" y="383" type="curve" smooth="yes"/>
      <point x="802" y="592"/>
      <point x="644" y="774"/>
      <point x="404" y="774" type="curve" smooth="yes"/>
      <point x="164" y="774"/>
      <point x="6" y="592"/>
      <point x="6" y="383" type="curve" smooth="yes"/>
      <point x="6" y="175"/>
      <point x="165" y="-4"/>
      <point x="404" y="-4" type="curve" smooth="yes"/>
    </contour>
    <contour>
      <point x="249" y="92"/>
      <point x="144" y="210"/>
      <point x="144" y="383" type="curve" smooth="yes"/>
      <point x="144" y="558"/>
      <point x="250" y="678"/>
      <point x="404" y="678" type="curve" smooth="yes"/>
      <point x="559" y="678"/>
      <point x="664" y="558"/>
      <point x="664" y="383" type="curve" smooth="yes"/>
      <point x="664" y="210"/>
      <point x="559" y="92"/>
      <point x="404" y="92" type="curve" smooth="yes"/>
    </contour>
    <contour>
      <point x="604" y="477" type="line"/>
      <point x="583" y="542"/>
      <point x="516" y="587"/>
      <point x="419" y="587" type="curve" smooth="yes"/>
      <point x="296" y="587"/>
      <point x="203" y="513"/>
      <point x="203" y="387" type="curve" smooth="yes"/>
      <point x="203" y="262"/>
      <point x="304" y="194"/>
      <point x="414" y="194" type="curve" smooth="yes"/>
      <point x="514" y="194"/>
      <point x="586" y="245"/>
      <point x="607" y="320" type="curve"/>
      <point x="505" y="363" type="line"/>
      <point x="504" y="310"/>
      <point x="486" y="274"/>
      <point x="414" y="274" type="curve" smooth="yes"/>
      <point x="366" y="274"/>
      <point x="322" y="309"/>
      <point x="322" y="387" type="curve" smooth="yes"/>
      <point x="322" y="466"/>
      <point x="359" y="508"/>
      <point x="419" y="508" type="curve" smooth="yes"/>
      <point x="476" y="508"/>
      <point x="502" y="482"/>
      <point x="509" y="425" type="curve"/>
    </contour>
  </outline>
</glyph>
<glyph name="ordfeminine" format="1">
  <advance width="373"/>
  <unicode hex="00AA"/>
  <outline>
    <contour>
      <point x="107" y="732"/>
      <point x="31" y="674"/>
      <point x="50" y="608" type="curve"/>
      <point x="152" y="608" type="line"/>
      <point x="151" y="612"/>
      <point x="148" y="662"/>
      <point x="205" y="662" type="curve" smooth="yes"/>
      <point x="234" y="662"/>
      <point x="247" y="652"/>
      <point x="250" y="630" type="curve" smooth="yes"/>
      <point x="253" y="600"/>
      <point x="222" y="590"/>
      <point x="174" y="586" type="curve" smooth="yes"/>
      <point x="61" y="575"/>
      <point x="20" y="536"/>
      <point x="20" y="480" type="curve" smooth="yes"/>
      <point x="20" y="420"/>
      <point x="61" y="372"/>
      <point x="151" y="372" type="curve" smooth="yes"/>
      <point x="201" y="372"/>
      <point x="232" y="392"/>
      <point x="251" y="421" type="curve"/>
      <point x="251" y="381" type="line"/>
      <point x="357" y="381" type="line"/>
      <point x="357" y="589" type="line" smooth="yes"/>
      <point x="357" y="643"/>
      <point x="343" y="732"/>
      <point x="201" y="732" type="curve" smooth="yes"/>
    </contour>
    <contour>
      <point x="138" y="437"/>
      <point x="122" y="461"/>
      <point x="122" y="483" type="curve" smooth="yes"/>
      <point x="122" y="511"/>
      <point x="148" y="524"/>
      <point x="181" y="528" type="curve" smooth="yes"/>
      <point x="206" y="531"/>
      <point x="230" y="537"/>
      <point x="251" y="546" type="curve"/>
      <point x="254" y="466"/>
      <point x="213" y="437"/>
      <point x="172" y="437" type="curve" smooth="yes"/>
    </contour>
  </outline>
</glyph>
<glyph name="guillemotleft" format="1">
  <advance width="527"/>
  <unicode hex="00AB"/>
  <outline>
    <contour>
      <point x="294" y="91" type="line"/>
      <point x="166" y="267" type="line"/>
      <point x="294" y="443" type="line"/>
      <point x="197" y="507" type="line"/>
      <point x="12" y="267" type="line"/>
      <point x="198" y="26" type="line"/>
    </contour>
    <contour>
      <point x="497" y="107" type="line"/>
      <point x="380" y="267" type="line"/>
      <point x="497" y="427" type="line"/>
      <point x="408" y="485" type="line"/>
      <point x="240" y="267" type="line"/>
      <point x="409" y="48" type="line"/>
    </contour>
  </outline>
</glyph>
<glyph name="logicalnot" format="1">
  <advance width="667"/>
  <unicode hex="00AC"/>
  <outline>
    <contour>
      <point x="503" y="46" type="line"/>
      <point x="663" y="46" type="line"/>
      <point x="663" y="366" type="line"/>
      <point x="22" y="366" type="line"/>
      <point x="22" y="249" type="line"/>
      <point x="503" y="249" type="line"/>
    </contour>
  </outline>
</glyph>
<glyph name="registered" format="1">
  <advance width="808"/>
  <unicode hex="00AE"/>
  <outline>
    <contour>
      <point x="164" y="774"/>
      <point x="6" y="592"/>
      <point x="6" y="383" type="curve" smooth="yes"/>
      <point x="6" y="175"/>
      <point x="165" y="-4"/>
      <point x="404" y="-4" type="curve" smooth="yes"/>
      <point x="644" y="-4"/>
      <point x="802" y="175"/>
      <point x="802" y="383" type="curve" smooth="yes"/>
      <point x="802" y="592"/>
      <point x="644" y="774"/>
      <point x="404" y="774" type="curve" smooth="yes"/>
    </contour>
    <contour>
      <point x="249" y="92"/>
      <point x="144" y="210"/>
      <point x="144" y="383" type="curve" smooth="yes"/>
      <point x="144" y="558"/>
      <point x="250" y="678"/>
      <point x="404" y="678" type="curve" smooth="yes"/>
      <point x="559" y="678"/>
      <point x="664" y="558"/>
      <point x="664" y="383" type="curve" smooth="yes"/>
      <point x="664" y="210"/>
      <point x="559" y="92"/>
      <point x="404" y="92" type="curve" smooth="yes"/>
    </contour>
    <contour>
      <point x="528" y="561"/>
      <point x="457" y="591"/>
      <point x="388" y="591" type="curve" smooth="yes"/>
      <point x="253" y="591" type="line"/>
      <point x="253" y="196" type="line"/>
      <point x="339" y="196" type="line"/>
      <point x="339" y="374" type="line"/>
      <point x="388" y="374" type="line" smooth="yes"/>
      <point x="390" y="374"/>
      <point x="391" y="374"/>
      <point x="393" y="374" type="curve"/>
      <point x="506" y="196" type="line"/>
      <point x="603" y="196" type="line"/>
      <point x="477" y="395" type="line"/>
      <point x="508" y="412"/>
      <point x="528" y="440"/>
      <point x="528" y="483" type="curve" smooth="yes"/>
    </contour>
    <contour>
      <point x="339" y="439" type="line"/>
      <point x="339" y="526" type="line"/>
      <point x="388" y="526" type="line" smooth="yes"/>
      <point x="423" y="526"/>
      <point x="442" y="514"/>
      <point x="442" y="482" type="curve" smooth="yes"/>
      <point x="442" y="451"/>
      <point x="423" y="439"/>
      <point x="388" y="439" type="curve" smooth="yes"/>
    </contour>
  </outline>
</glyph>
<glyph name="macron" format="1">
  <advance width="600"/>
  <unicode hex="00AF"/>
  <outline>
    <contour>
      <point x="21" y="756" type="line"/>
      <point x="21" y="632" type="line"/>
      <point x="589" y="632" type="line"/>
      <point x="589" y="756" type="line"/>
    </contour>
  </outline>
</glyph>
<glyph name="plusminus" format="1">
  <advance width="600"/>
  <unicode hex="00B1"/>
  <outline>
    <contour>
      <point x="563" y="352" type="line"/>
      <point x="563" y="469" type="line"/>
      <point x="373" y="469" type="line"/>
      <point x="373" y="658" type="line"/>
      <point x="227" y="658" type="line"/>
      <point x="227" y="469" type="line"/>
      <point x="36" y="469" type="line"/>
      <point x="36" y="352" type="line"/>
      <point x="227" y="352" type="line"/>
      <point x="227" y="165" type="line"/>
      <point x="373" y="165" type="line"/>
      <point x="373" y="352" type="line"/>
    </contour>
    <contour>
      <point x="563" y="116" type="line"/>
      <point x="36" y="116" type="line"/>
      <point x="36" y="-1" type="line"/>
      <point x="563" y="-1" type="line"/>
    </contour>
  </outline>
</glyph>
<glyph name="paragraph" format="1">
  <advance width="691"/>
  <unicode hex="00B6"/>
  <outline>
    <contour>
      <point x="335" y="-194" type="line"/>
      <point x="470" y="-194" type="line"/>
      <point x="470" y="700" type="line"/>
      <point x="282" y="700" type="line" smooth="yes"/>
      <point x="195" y="700"/>
      <point x="83" y="655"/>
      <point x="83" y="532" type="curve" smooth="yes"/>
      <point x="83" y="408"/>
      <point x="191" y="364"/>
      <point x="287" y="364" type="curve" smooth="yes"/>
      <point x="335" y="364" type="line"/>
    </contour>
    <contour>
      <point x="522" y="-194" type="line"/>
      <point x="658" y="-194" type="line"/>
      <point x="658" y="700" type="line"/>
      <point x="522" y="700" type="line"/>
    </contour>
  </outline>
</glyph>
<glyph name="periodcentered" format="1">
  <advance width="600"/>
  <unicode hex="00B7"/>
  <outline>
    <contour>
      <point x="211" y="372" type="line"/>
      <point x="211" y="224" type="line"/>
      <point x="389" y="224" type="line"/>
      <point x="389" y="372" type="line"/>
    </contour>
  </outline>
</glyph>
<glyph name="onesuperior" format="1">
  <advance width="318"/>
  <unicode hex="00B9"/>
  <outline>
    <contour>
      <point x="270" y="402" type="line"/>
      <point x="270" y="865" type="line"/>
      <point x="116" y="865" type="line"/>
      <point x="117" y="860"/>
      <point x="118" y="856"/>
      <point x="119" y="851" type="curve"/>
      <point x="119" y="833" type="line"/>
      <point x="114" y="804"/>
      <point x="83" y="792"/>
      <point x="28" y="816" type="curve"/>
      <point x="28" y="717" type="line"/>
      <point x="119" y="717" type="line"/>
      <point x="119" y="402" type="line"/>
    </contour>
  </outline>
</glyph>
<glyph name="ordmasculine" format="1">
  <advance width="380"/>
  <unicode hex="00BA"/>
  <outline>
    <contour>
      <point x="308" y="369"/>
      <point x="381" y="452"/>
      <point x="381" y="547" type="curve" smooth="yes"/>
      <point x="381" y="644"/>
      <point x="308" y="729"/>
      <point x="201" y="729" type="curve" smooth="yes"/>
      <point x="93" y="729"/>
      <point x="20" y="644"/>
      <point x="20" y="547" type="curve" smooth="yes"/>
      <point x="20" y="452"/>
      <point x="93" y="369"/>
      <point x="201" y="369" type="curve" smooth="yes"/>
    </contour>
    <contour>
      <point x="157" y="441"/>
      <point x="123" y="483"/>
      <point x="123" y="547" type="curve" smooth="yes"/>
      <point x="123" y="613"/>
      <point x="157" y="654"/>
      <point x="201" y="654" type="curve" smooth="yes"/>
      <point x="244" y="654"/>
      <point x="278" y="613"/>
      <point x="278" y="547" type="curve" smooth="yes"/>
      <point x="278" y="483"/>
      <point x="244" y="441"/>
      <point x="201" y="441" type="curve" smooth="yes"/>
    </contour>
  </outline>
</glyph>
<glyph name="guillemotright" format="1">
  <advance width="526"/>
  <unicode hex="00BB"/>
  <outline>
    <contour>
      <point x="232" y="443" type="line"/>
      <point x="360" y="267" type="line"/>
      <point x="232" y="91" type="line"/>
      <point x="328" y="26" type="line"/>
      <point x="514" y="267" type="line"/>
      <point x="329" y="507" type="line"/>
    </contour>
    <contour>
      <point x="29" y="427" type="line"/>
      <point x="146" y="267" type="line"/>
      <point x="29" y="107" type="line"/>
      <point x="117" y="48" type="line"/>
      <point x="286" y="267" type="line"/>
      <point x="118" y="485" type="line"/>
    </contour>
  </outline>
</glyph>
<glyph name="onequarter" format="1">
  <advance width="851"/>
  <unicode hex="00BC"/>
  <outline>
    <contour>
      <point x="119" y="717" type="line"/>
      <point x="119" y="402" type="line"/>
      <point x="270" y="402" type="line"/>
      <point x="270" y="865" type="line"/>
      <point x="116" y="865" type="line"/>
      <point x="117" y="860"/>
      <point x="118" y="856"/>
      <point x="119" y="851" type="curve"/>
      <point x="119" y="833" type="line"/>
      <point x="114" y="804"/>
      <point x="83" y="792"/>
      <point x="28" y="816" type="curve"/>
      <point x="28" y="717" type="line"/>
    </contour>
    <contour>
      <point x="767" y="750" type="line"/>
      <point x="604" y="750" type="line"/>
      <point x="27" y="2" type="line"/>
      <point x="189" y="2" type="line"/>
    </contour>
    <contour>
      <point x="825" y="89" type="line"/>
      <point x="825" y="186" type="line"/>
      <point x="757" y="186" type="line"/>
      <point x="757" y="464" type="line"/>
      <point x="639" y="464" type="line"/>
      <point x="389" y="167" type="line"/>
      <point x="388" y="89" type="line"/>
      <point x="606" y="89" type="line"/>
      <point x="606" y="2" type="line"/>
      <point x="757" y="2" type="line"/>
      <point x="757" y="89" type="line"/>
    </contour>
    <contour>
      <point x="606" y="186" type="line"/>
      <point x="524" y="186" type="line"/>
      <point x="606" y="283" type="line"/>
    </contour>
  </outline>
</glyph>
<glyph name="onehalf" format="1">
  <advance width="882"/>
  <unicode hex="00BD"/>
  <outline>
    <contour>
      <point x="270" y="402" type="line"/>
      <point x="270" y="865" type="line"/>
      <point x="116" y="865" type="line"/>
      <point x="117" y="860"/>
      <point x="118" y="856"/>
      <point x="119" y="851" type="curve"/>
      <point x="119" y="833" type="line"/>
      <point x="114" y="804"/>
      <point x="83" y="792"/>
      <point x="28" y="816" type="curve"/>
      <point x="28" y="717" type="line"/>
      <point x="119" y="717" type="line"/>
      <point x="119" y="402" type="line"/>
    </contour>
    <contour>
      <point x="190" y="2" type="line"/>
      <point x="767" y="750" type="line"/>
      <point x="605" y="750" type="line"/>
      <point x="27" y="2" type="line"/>
    </contour>
    <contour>
      <point x="555" y="468"/>
      <point x="482" y="390"/>
      <point x="506" y="313" type="curve"/>
      <point x="654" y="327" type="line"/>
      <point x="650" y="364"/>
      <point x="653" y="374"/>
      <point x="675" y="374" type="curve" smooth="yes"/>
      <point x="693" y="374"/>
      <point x="700" y="355"/>
      <point x="700" y="325" type="curve" smooth="yes"/>
      <point x="698" y="202"/>
      <point x="523" y="151"/>
      <point x="489" y="73" type="curve"/>
      <point x="488" y="-1" type="line"/>
      <point x="862" y="-1" type="line"/>
      <point x="862" y="102" type="line"/>
      <point x="688" y="102" type="line"/>
      <point x="750" y="149"/>
      <point x="853" y="216"/>
      <point x="851" y="332" type="curve" smooth="yes"/>
      <point x="850" y="393"/>
      <point x="805" y="468"/>
      <point x="675" y="468" type="curve" smooth="yes"/>
    </contour>
  </outline>
</glyph>
<glyph name="threequarters" format="1">
  <advance width="851"/>
  <unicode hex="00BE"/>
  <outline>
    <contour>
      <point x="373" y="789" type="line"/>
      <point x="373" y="864" type="line"/>
      <point x="22" y="864" type="line"/>
      <point x="22" y="770" type="line"/>
      <point x="182" y="770" type="line"/>
      <point x="86" y="667" type="line"/>
      <point x="142" y="602" type="line"/>
      <point x="152" y="611"/>
      <point x="165" y="622"/>
      <point x="191" y="622" type="curve" smooth="yes"/>
      <point x="220" y="622"/>
      <point x="230" y="599"/>
      <point x="230" y="552" type="curve" smooth="yes"/>
      <point x="230" y="506"/>
      <point x="210" y="490"/>
      <point x="191" y="490" type="curve" smooth="yes"/>
      <point x="163" y="490"/>
      <point x="147" y="506"/>
      <point x="152" y="572" type="curve"/>
      <point x="1" y="572" type="line"/>
      <point x="-10" y="462"/>
      <point x="81" y="397"/>
      <point x="191" y="397" type="curve" smooth="yes"/>
      <point x="286" y="397"/>
      <point x="381" y="462"/>
      <point x="381" y="552" type="curve" smooth="yes"/>
      <point x="381" y="616"/>
      <point x="336" y="667"/>
      <point x="275" y="689" type="curve"/>
    </contour>
    <contour>
      <point x="189" y="2" type="line"/>
      <point x="766" y="750" type="line"/>
      <point x="604" y="750" type="line"/>
      <point x="27" y="2" type="line"/>
    </contour>
    <contour>
      <point x="756" y="89" type="line"/>
      <point x="825" y="89" type="line"/>
      <point x="825" y="186" type="line"/>
      <point x="756" y="186" type="line"/>
      <point x="756" y="464" type="line"/>
      <point x="636" y="464" type="line"/>
      <point x="389" y="167" type="line"/>
      <point x="388" y="89" type="line"/>
      <point x="606" y="89" type="line"/>
      <point x="606" y="2" type="line"/>
      <point x="756" y="2" type="line"/>
    </contour>
    <contour>
      <point x="606" y="235" type="line"/>
      <point x="606" y="186" type="line"/>
      <point x="566" y="186" type="line"/>
    </contour>
  </outline>
</glyph>
<glyph name="questiondown" format="1">
  <advance width="501"/>
  <unicode hex="00BF"/>
  <outline>
    <contour>
      <point x="315" y="357" type="line"/>
      <point x="315" y="505" type="line"/>
      <point x="137" y="505" type="line"/>
      <point x="137" y="357" type="line"/>
    </contour>
    <contour>
      <point x="185" y="-108"/>
      <point x="159" y="-86"/>
      <point x="159" y="-46" type="curve" smooth="yes"/>
      <point x="159" y="-7"/>
      <point x="181" y="-8"/>
      <point x="254" y="22" type="curve" smooth="yes"/>
      <point x="303" y="43"/>
      <point x="399" y="84"/>
      <point x="399" y="174" type="curve" smooth="yes"/>
      <point x="399" y="266"/>
      <point x="309" y="317"/>
      <point x="227" y="317" type="curve" smooth="yes"/>
      <point x="144" y="317"/>
      <point x="85" y="273"/>
      <point x="60" y="194" type="curve"/>
      <point x="199" y="150" type="line"/>
      <point x="189" y="197"/>
      <point x="208" y="213"/>
      <point x="222" y="213" type="curve" smooth="yes"/>
      <point x="236" y="213"/>
      <point x="247" y="202"/>
      <point x="247" y="174" type="curve" smooth="yes"/>
      <point x="247" y="139"/>
      <point x="229" y="127"/>
      <point x="206" y="117" type="curve" smooth="yes"/>
      <point x="149" y="91"/>
      <point x="9" y="62"/>
      <point x="9" y="-48" type="curve" smooth="yes"/>
      <point x="9" y="-129"/>
      <point x="82" y="-215"/>
      <point x="227" y="-215" type="curve" smooth="yes"/>
      <point x="333" y="-215"/>
      <point x="438" y="-156"/>
      <point x="462" y="-67" type="curve"/>
      <point x="335" y="27" type="line"/>
      <point x="333" y="-50"/>
      <point x="296" y="-108"/>
      <point x="227" y="-108" type="curve" smooth="yes"/>
    </contour>
  </outline>
</glyph>
<glyph name="Agrave" format="1">
  <advance width="813"/>
  <unicode hex="00C0"/>
  <outline>
    <contour>
      <point x="448" y="741" type="line"/>
      <point x="566" y="777" type="line"/>
      <point x="353" y="976" type="line"/>
      <point x="276" y="848" type="line"/>
    </contour>
    <contour>
      <point x="538" y="177" type="line"/>
      <point x="611" y="0" type="line"/>
      <point x="773" y="0" type="line"/>
      <point x="489" y="700" type="line"/>
      <point x="324" y="700" type="line"/>
      <point x="40" y="0" type="line"/>
      <point x="202" y="0" type="line"/>
      <point x="275" y="177" type="line"/>
    </contour>
    <contour>
      <point x="493" y="288" type="line"/>
      <point x="320" y="288" type="line"/>
      <point x="406" y="499" type="line"/>
    </contour>
  </outline>
</glyph>
<glyph name="Aacute" format="1">
  <advance width="813"/>
  <unicode hex="00C1"/>
  <outline>
    <contour>
      <point x="394" y="741" type="line"/>
      <point x="566" y="848" type="line"/>
      <point x="489" y="976" type="line"/>
      <point x="276" y="777" type="line"/>
    </contour>
    <contour>
      <point x="538" y="177" type="line"/>
      <point x="611" y="0" type="line"/>
      <point x="773" y="0" type="line"/>
      <point x="489" y="700" type="line"/>
      <point x="324" y="700" type="line"/>
      <point x="40" y="0" type="line"/>
      <point x="202" y="0" type="line"/>
      <point x="275" y="177" type="line"/>
    </contour>
    <contour>
      <point x="493" y="288" type="line"/>
      <point x="320" y="288" type="line"/>
      <point x="406" y="499" type="line"/>
    </contour>
  </outline>
</glyph>
<glyph name="Acircumflex" format="1">
  <advance width="813"/>
  <unicode hex="00C2"/>
  <outline>
    <contour>
      <point x="281" y="747" type="line"/>
      <point x="373" y="833" type="line"/>
      <point x="465" y="747" type="line"/>
      <point x="587" y="785" type="line"/>
      <point x="389" y="959" type="line"/>
      <point x="374" y="974" type="line"/>
      <point x="373" y="973" type="line"/>
      <point x="372" y="974" type="line"/>
      <point x="357" y="959" type="line"/>
      <point x="159" y="785" type="line"/>
    </contour>
    <contour>
      <point x="538" y="177" type="line"/>
      <point x="611" y="0" type="line"/>
      <point x="773" y="0" type="line"/>
      <point x="489" y="700" type="line"/>
      <point x="324" y="700" type="line"/>
      <point x="40" y="0" type="line"/>
      <point x="202" y="0" type="line"/>
      <point x="275" y="177" type="line"/>
    </contour>
    <contour>
      <point x="493" y="288" type="line"/>
      <point x="320" y="288" type="line"/>
      <point x="406" y="499" type="line"/>
    </contour>
  </outline>
</glyph>
<glyph name="Atilde" format="1">
  <advance width="813"/>
  <unicode hex="00C3"/>
  <outline>
    <contour>
      <point x="334" y="773" type="line"/>
      <point x="271" y="809"/>
      <point x="267" y="862"/>
      <point x="285" y="862" type="curve" smooth="yes"/>
      <point x="309" y="862"/>
      <point x="330" y="833"/>
      <point x="370" y="805" type="curve" smooth="yes"/>
      <point x="394" y="787"/>
      <point x="425" y="773"/>
      <point x="462" y="773" type="curve" smooth="yes"/>
      <point x="565" y="773"/>
      <point x="594" y="898"/>
      <point x="515" y="943" type="curve"/>
      <point x="402" y="943" type="line"/>
      <point x="465" y="907"/>
      <point x="468" y="854"/>
      <point x="451" y="854" type="curve" smooth="yes"/>
      <point x="428" y="854"/>
      <point x="407" y="883"/>
      <point x="383" y="900" type="curve" smooth="yes"/>
      <point x="339" y="931"/>
      <point x="316" y="943"/>
      <point x="274" y="943" type="curve" smooth="yes"/>
      <point x="168" y="943"/>
      <point x="154" y="834"/>
      <point x="215" y="773" type="curve"/>
    </contour>
    <contour>
      <point x="538" y="177" type="line"/>
      <point x="611" y="0" type="line"/>
      <point x="773" y="0" type="line"/>
      <point x="489" y="700" type="line"/>
      <point x="324" y="700" type="line"/>
      <point x="40" y="0" type="line"/>
      <point x="202" y="0" type="line"/>
      <point x="275" y="177" type="line"/>
    </contour>
    <contour>
      <point x="493" y="288" type="line"/>
      <point x="320" y="288" type="line"/>
      <point x="406" y="499" type="line"/>
    </contour>
  </outline>
</glyph>
<glyph name="Adieresis" format="1">
  <advance width="813"/>
  <unicode hex="00C4"/>
  <outline>
    <contour>
      <point x="376" y="761" type="line"/>
      <point x="376" y="885" type="line"/>
      <point x="222" y="885" type="line"/>
      <point x="222" y="761" type="line"/>
    </contour>
    <contour>
      <point x="624" y="761" type="line"/>
      <point x="624" y="885" type="line"/>
      <point x="470" y="885" type="line"/>
      <point x="470" y="761" type="line"/>
    </contour>
    <contour>
      <point x="538" y="177" type="line"/>
      <point x="611" y="0" type="line"/>
      <point x="773" y="0" type="line"/>
      <point x="489" y="700" type="line"/>
      <point x="324" y="700" type="line"/>
      <point x="40" y="0" type="line"/>
      <point x="202" y="0" type="line"/>
      <point x="275" y="177" type="line"/>
    </contour>
    <contour>
      <point x="493" y="288" type="line"/>
      <point x="320" y="288" type="line"/>
      <point x="406" y="499" type="line"/>
    </contour>
  </outline>
</glyph>
<glyph name="Aring" format="1">
  <advance width="813"/>
  <unicode hex="00C5"/>
  <outline>
    <contour>
      <point x="449" y="725"/>
      <point x="515" y="791"/>
      <point x="515" y="868" type="curve" smooth="yes"/>
      <point x="515" y="945"/>
      <point x="449" y="1011"/>
      <point x="372" y="1011" type="curve" smooth="yes"/>
      <point x="295" y="1011"/>
      <point x="229" y="945"/>
      <point x="229" y="868" type="curve" smooth="yes"/>
      <point x="229" y="791"/>
      <point x="295" y="725"/>
      <point x="372" y="725" type="curve" smooth="yes"/>
    </contour>
    <contour>
      <point x="402" y="921"/>
      <point x="425" y="898"/>
      <point x="425" y="868" type="curve" smooth="yes"/>
      <point x="425" y="838"/>
      <point x="402" y="815"/>
      <point x="372" y="815" type="curve" smooth="yes"/>
      <point x="342" y="815"/>
      <point x="319" y="838"/>
      <point x="319" y="868" type="curve" smooth="yes"/>
      <point x="319" y="898"/>
      <point x="342" y="921"/>
      <point x="372" y="921" type="curve" smooth="yes"/>
    </contour>
    <contour>
      <point x="538" y="177" type="line"/>
      <point x="611" y="0" type="line"/>
      <point x="773" y="0" type="line"/>
      <point x="489" y="700" type="line"/>
      <point x="324" y="700" type="line"/>
      <point x="40" y="0" type="line"/>
      <point x="202" y="0" type="line"/>
      <point x="275" y="177" type="line"/>
    </contour>
    <contour>
      <point x="493" y="288" type="line"/>
      <point x="320" y="288" type="line"/>
      <point x="406" y="499" type="line"/>
    </contour>
  </outline>
</glyph>
<glyph name="AE" format="1">
  <advance width="1070"/>
  <unicode hex="00C6"/>
  <outline>
    <contour>
      <point x="1066" y="124" type="line"/>
      <point x="641" y="124" type="line"/>
      <point x="641" y="296" type="line"/>
      <point x="1046" y="296" type="line"/>
      <point x="1046" y="420" type="line"/>
      <point x="641" y="420" type="line"/>
      <point x="641" y="576" type="line"/>
      <point x="1056" y="576" type="line"/>
      <point x="1056" y="700" type="line"/>
      <point x="406" y="700" type="line"/>
      <point x="8" y="0" type="line"/>
      <point x="181" y="0" type="line"/>
      <point x="280" y="175" type="line"/>
      <point x="487" y="175" type="line"/>
      <point x="487" y="0" type="line"/>
      <point x="1066" y="0" type="line"/>
    </contour>
    <contour>
      <point x="487" y="286" type="line"/>
      <point x="343" y="286" type="line"/>
      <point x="487" y="541" type="line"/>
    </contour>
  </outline>
</glyph>
<glyph name="Ccedilla" format="1">
  <advance width="745"/>
  <unicode hex="00C7"/>
  <outline>
    <contour>
      <point x="299" y="110"/>
      <point x="214" y="206"/>
      <point x="214" y="348" type="curve" smooth="yes"/>
      <point x="214" y="492"/>
      <point x="300" y="590"/>
      <point x="414" y="590" type="curve" smooth="yes"/>
      <point x="489" y="590"/>
      <point x="548" y="556"/>
      <point x="590" y="477" type="curve"/>
      <point x="725" y="545" type="line"/>
      <point x="670" y="637"/>
      <point x="555" y="705"/>
      <point x="414" y="705" type="curve" smooth="yes"/>
      <point x="194" y="705"/>
      <point x="50" y="538"/>
      <point x="50" y="348" type="curve" smooth="yes"/>
      <point x="50" y="179"/>
      <point x="169" y="28"/>
      <point x="351" y="-0" type="curve"/>
      <point x="305" y="-102" type="line"/>
      <point x="396" y="-102" type="line"/>
      <point x="400" y="-95"/>
      <point x="409" y="-87"/>
      <point x="421" y="-87" type="curve" smooth="yes"/>
      <point x="431" y="-87"/>
      <point x="442" y="-93"/>
      <point x="438" y="-112" type="curve" smooth="yes"/>
      <point x="434" y="-131"/>
      <point x="408" y="-143"/>
      <point x="377" y="-143" type="curve" smooth="yes"/>
      <point x="341" y="-143"/>
      <point x="305" y="-129"/>
      <point x="293" y="-119" type="curve"/>
      <point x="293" y="-188" type="line"/>
      <point x="310" y="-200"/>
      <point x="339" y="-206"/>
      <point x="371" y="-206" type="curve" smooth="yes"/>
      <point x="425" y="-206"/>
      <point x="500" y="-185"/>
      <point x="515" y="-115" type="curve" smooth="yes"/>
      <point x="527" y="-55"/>
      <point x="483" y="-27"/>
      <point x="434" y="-27" type="curve" smooth="yes"/>
      <point x="416" y="-27"/>
      <point x="395" y="-34"/>
      <point x="387" y="-39" type="curve"/>
      <point x="411" y="-5" type="line"/>
      <point x="412" y="-5"/>
      <point x="413" y="-5"/>
      <point x="414" y="-5" type="curve" smooth="yes"/>
      <point x="554" y="-5"/>
      <point x="669" y="61"/>
      <point x="723" y="151" type="curve"/>
      <point x="587" y="217" type="line"/>
      <point x="545" y="142"/>
      <point x="487" y="110"/>
      <point x="414" y="110" type="curve" smooth="yes"/>
    </contour>
  </outline>
</glyph>
<glyph name="Egrave" format="1">
  <advance width="669"/>
  <unicode hex="00C8"/>
  <outline>
    <contour>
      <point x="359" y="741" type="line"/>
      <point x="477" y="777" type="line"/>
      <point x="264" y="976" type="line"/>
      <point x="187" y="848" type="line"/>
    </contour>
    <contour>
      <point x="629" y="124" type="line"/>
      <point x="204" y="124" type="line"/>
      <point x="204" y="296" type="line"/>
      <point x="609" y="296" type="line"/>
      <point x="609" y="420" type="line"/>
      <point x="204" y="420" type="line"/>
      <point x="204" y="576" type="line"/>
      <point x="619" y="576" type="line"/>
      <point x="619" y="700" type="line"/>
      <point x="50" y="700" type="line"/>
      <point x="50" y="0" type="line"/>
      <point x="629" y="0" type="line"/>
    </contour>
  </outline>
</glyph>
<glyph name="Ecircumflex" format="1">
  <advance width="669"/>
  <unicode hex="00CA"/>
  <outline>
    <contour>
      <point x="226" y="747" type="line"/>
      <point x="318" y="833" type="line"/>
      <point x="410" y="747" type="line"/>
      <point x="532" y="785" type="line"/>
      <point x="334" y="959" type="line"/>
      <point x="319" y="974" type="line"/>
      <point x="318" y="973" type="line"/>
      <point x="317" y="974" type="line"/>
      <point x="302" y="959" type="line"/>
      <point x="104" y="785" type="line"/>
    </contour>
    <contour>
      <point x="629" y="124" type="line"/>
      <point x="204" y="124" type="line"/>
      <point x="204" y="296" type="line"/>
      <point x="609" y="296" type="line"/>
      <point x="609" y="420" type="line"/>
      <point x="204" y="420" type="line"/>
      <point x="204" y="576" type="line"/>
      <point x="619" y="576" type="line"/>
      <point x="619" y="700" type="line"/>
      <point x="50" y="700" type="line"/>
      <point x="50" y="0" type="line"/>
      <point x="629" y="0" type="line"/>
    </contour>
  </outline>
</glyph>
<glyph name="Edieresis" format="1">
  <advance width="669"/>
  <unicode hex="00CB"/>
  <outline>
    <contour>
      <point x="287" y="761" type="line"/>
      <point x="287" y="885" type="line"/>
      <point x="133" y="885" type="line"/>
      <point x="133" y="761" type="line"/>
    </contour>
    <contour>
      <point x="535" y="761" type="line"/>
      <point x="535" y="885" type="line"/>
      <point x="381" y="885" type="line"/>
      <point x="381" y="761" type="line"/>
    </contour>
    <contour>
      <point x="629" y="124" type="line"/>
      <point x="204" y="124" type="line"/>
      <point x="204" y="296" type="line"/>
      <point x="609" y="296" type="line"/>
      <point x="609" y="420" type="line"/>
      <point x="204" y="420" type="line"/>
      <point x="204" y="576" type="line"/>
      <point x="619" y="576" type="line"/>
      <point x="619" y="700" type="line"/>
      <point x="50" y="700" type="line"/>
      <point x="50" y="0" type="line"/>
      <point x="629" y="0" type="line"/>
    </contour>
  </outline>
</glyph>
<glyph name="Igrave" format="1">
  <advance width="294"/>
  <unicode hex="00CC"/>
  <outline>
    <contour>
      <point x="77" y="976" type="line"/>
      <point x="0" y="848" type="line"/>
      <point x="172" y="741" type="line"/>
      <point x="290" y="777" type="line"/>
    </contour>
    <contour>
      <point x="70" y="700" type="line"/>
      <point x="70" y="0" type="line"/>
      <point x="224" y="0" type="line"/>
      <point x="224" y="700" type="line"/>
    </contour>
  </outline>
</glyph>
<glyph name="Icircumflex" format="1">
  <advance width="294"/>
  <unicode hex="00CE"/>
  <outline>
    <contour>
      <point x="105" y="833" type="line"/>
      <point x="197" y="747" type="line"/>
      <point x="319" y="785" type="line"/>
      <point x="121" y="959" type="line"/>
      <point x="106" y="974" type="line"/>
      <point x="105" y="973" type="line"/>
      <point x="104" y="974" type="line"/>
      <point x="89" y="959" type="line"/>
      <point x="-109" y="785" type="line"/>
      <point x="13" y="747" type="line"/>
    </contour>
    <contour>
      <point x="70" y="700" type="line"/>
      <point x="70" y="0" type="line"/>
      <point x="224" y="0" type="line"/>
      <point x="224" y="700" type="line"/>
    </contour>
  </outline>
</glyph>
<glyph name="Idieresis" format="1">
  <advance width="294"/>
  <unicode hex="00CF"/>
  <outline>
    <contour>
      <point x="-54" y="885" type="line"/>
      <point x="-54" y="761" type="line"/>
      <point x="100" y="761" type="line"/>
      <point x="100" y="885" type="line"/>
    </contour>
    <contour>
      <point x="194" y="885" type="line"/>
      <point x="194" y="761" type="line"/>
      <point x="348" y="761" type="line"/>
      <point x="348" y="885" type="line"/>
    </contour>
    <contour>
      <point x="70" y="700" type="line"/>
      <point x="70" y="0" type="line"/>
      <point x="224" y="0" type="line"/>
      <point x="224" y="700" type="line"/>
    </contour>
  </outline>
</glyph>
<glyph name="Ntilde" format="1">
  <advance width="679"/>
  <unicode hex="00D1"/>
  <outline>
    <contour>
      <point x="348" y="943" type="line"/>
      <point x="411" y="907"/>
      <point x="414" y="854"/>
      <point x="397" y="854" type="curve" smooth="yes"/>
      <point x="374" y="854"/>
      <point x="353" y="883"/>
      <point x="329" y="900" type="curve" smooth="yes"/>
      <point x="285" y="931"/>
      <point x="262" y="943"/>
      <point x="220" y="943" type="curve" smooth="yes"/>
      <point x="114" y="943"/>
      <point x="100" y="834"/>
      <point x="161" y="773" type="curve"/>
      <point x="280" y="773" type="line"/>
      <point x="217" y="809"/>
      <point x="213" y="862"/>
      <point x="231" y="862" type="curve" smooth="yes"/>
      <point x="255" y="862"/>
      <point x="276" y="833"/>
      <point x="316" y="805" type="curve" smooth="yes"/>
      <point x="340" y="787"/>
      <point x="371" y="773"/>
      <point x="408" y="773" type="curve" smooth="yes"/>
      <point x="511" y="773"/>
      <point x="540" y="898"/>
      <point x="461" y="943" type="curve"/>
    </contour>
    <contour>
      <point x="629" y="0" type="line"/>
      <point x="629" y="700" type="line"/>
      <point x="475" y="700" type="line"/>
      <point x="475" y="272" type="line"/>
      <point x="204" y="700" type="line"/>
      <point x="50" y="700" type="line"/>
      <point x="50" y="0" type="line"/>
      <point x="204" y="0" type="line"/>
      <point x="204" y="436" type="line"/>
      <point x="477" y="0" type="line"/>
    </contour>
  </outline>
</glyph>
<glyph name="Ocircumflex" format="1">
  <advance width="828"/>
  <unicode hex="00D4"/>
  <outline>
    <contour>
      <point x="380" y="833" type="line"/>
      <point x="472" y="747" type="line"/>
      <point x="594" y="785" type="line"/>
      <point x="396" y="959" type="line"/>
      <point x="381" y="974" type="line"/>
      <point x="380" y="973" type="line"/>
      <point x="379" y="974" type="line"/>
      <point x="364" y="959" type="line"/>
      <point x="166" y="785" type="line"/>
      <point x="288" y="747" type="line"/>
    </contour>
    <contour>
      <point x="634" y="-5"/>
      <point x="778" y="160"/>
      <point x="778" y="348" type="curve" smooth="yes"/>
      <point x="778" y="538"/>
      <point x="634" y="705"/>
      <point x="414" y="705" type="curve" smooth="yes"/>
      <point x="194" y="705"/>
      <point x="50" y="538"/>
      <point x="50" y="348" type="curve" smooth="yes"/>
      <point x="50" y="160"/>
      <point x="195" y="-5"/>
      <point x="414" y="-5" type="curve" smooth="yes"/>
    </contour>
    <contour>
      <point x="289" y="110"/>
      <point x="204" y="206"/>
      <point x="204" y="348" type="curve" smooth="yes"/>
      <point x="204" y="492"/>
      <point x="290" y="590"/>
      <point x="414" y="590" type="curve" smooth="yes"/>
      <point x="539" y="590"/>
      <point x="624" y="492"/>
      <point x="624" y="348" type="curve" smooth="yes"/>
      <point x="624" y="206"/>
      <point x="539" y="110"/>
      <point x="414" y="110" type="curve" smooth="yes"/>
    </contour>
  </outline>
</glyph>
<glyph name="Otilde" format="1">
  <advance width="828"/>
  <unicode hex="00D5"/>
  <outline>
    <contour>
      <point x="409" y="943" type="line"/>
      <point x="472" y="907"/>
      <point x="475" y="854"/>
      <point x="458" y="854" type="curve" smooth="yes"/>
      <point x="435" y="854"/>
      <point x="414" y="883"/>
      <point x="390" y="900" type="curve" smooth="yes"/>
      <point x="346" y="931"/>
      <point x="323" y="943"/>
      <point x="281" y="943" type="curve" smooth="yes"/>
      <point x="175" y="943"/>
      <point x="161" y="834"/>
      <point x="222" y="773" type="curve"/>
      <point x="341" y="773" type="line"/>
      <point x="278" y="809"/>
      <point x="274" y="862"/>
      <point x="292" y="862" type="curve" smooth="yes"/>
      <point x="316" y="862"/>
      <point x="337" y="833"/>
      <point x="377" y="805" type="curve" smooth="yes"/>
      <point x="401" y="787"/>
      <point x="432" y="773"/>
      <point x="469" y="773" type="curve" smooth="yes"/>
      <point x="572" y="773"/>
      <point x="601" y="898"/>
      <point x="522" y="943" type="curve"/>
    </contour>
    <contour>
      <point x="634" y="-5"/>
      <point x="778" y="160"/>
      <point x="778" y="348" type="curve" smooth="yes"/>
      <point x="778" y="538"/>
      <point x="634" y="705"/>
      <point x="414" y="705" type="curve" smooth="yes"/>
      <point x="194" y="705"/>
      <point x="50" y="538"/>
      <point x="50" y="348" type="curve" smooth="yes"/>
      <point x="50" y="160"/>
      <point x="195" y="-5"/>
      <point x="414" y="-5" type="curve" smooth="yes"/>
    </contour>
    <contour>
      <point x="289" y="110"/>
      <point x="204" y="206"/>
      <point x="204" y="348" type="curve" smooth="yes"/>
      <point x="204" y="492"/>
      <point x="290" y="590"/>
      <point x="414" y="590" type="curve" smooth="yes"/>
      <point x="539" y="590"/>
      <point x="624" y="492"/>
      <point x="624" y="348" type="curve" smooth="yes"/>
      <point x="624" y="206"/>
      <point x="539" y="110"/>
      <point x="414" y="110" type="curve" smooth="yes"/>
    </contour>
  </outline>
</glyph>
<glyph name="multiply" format="1">
  <advance width="600"/>
  <unicode hex="00D7"/>
  <outline>
    <contour>
      <point x="310" y="191" type="line"/>
      <point x="512" y="-11" type="line"/>
      <point x="606" y="80" type="line"/>
      <point x="402" y="284" type="line"/>
      <point x="605" y="486" type="line"/>
      <point x="515" y="580" type="line"/>
      <point x="310" y="376" type="line"/>
      <point x="106" y="580" type="line"/>
      <point x="14" y="486" type="line"/>
      <point x="218" y="283" type="line"/>
      <point x="15" y="80" type="line"/>
      <point x="105" y="-14" type="line"/>
    </contour>
  </outline>
</glyph>
<glyph name="Oslash" format="1">
  <advance width="828"/>
  <unicode hex="00D8"/>
  <outline>
    <contour>
      <point x="591" y="775" type="line"/>
      <point x="471" y="775" type="line"/>
      <point x="450" y="703" type="line"/>
      <point x="438" y="704"/>
      <point x="426" y="705"/>
      <point x="414" y="705" type="curve" smooth="yes"/>
      <point x="194" y="705"/>
      <point x="50" y="538"/>
      <point x="50" y="348" type="curve" smooth="yes"/>
      <point x="50" y="212"/>
      <point x="126" y="89"/>
      <point x="250" y="30" type="curve"/>
      <point x="222" y="-64" type="line"/>
      <point x="342" y="-64" type="line"/>
      <point x="361" y="-2" type="line"/>
      <point x="378" y="-4"/>
      <point x="396" y="-5"/>
      <point x="414" y="-5" type="curve" smooth="yes"/>
      <point x="634" y="-5"/>
      <point x="778" y="160"/>
      <point x="778" y="348" type="curve" smooth="yes"/>
      <point x="778" y="491"/>
      <point x="696" y="621"/>
      <point x="562" y="677" type="curve"/>
    </contour>
    <contour>
      <point x="204" y="492"/>
      <point x="290" y="590"/>
      <point x="414" y="590" type="curve" smooth="yes"/>
      <point x="415" y="590"/>
      <point x="415" y="590"/>
      <point x="416" y="590" type="curve"/>
      <point x="286" y="153" type="line"/>
      <point x="235" y="194"/>
      <point x="204" y="263"/>
      <point x="204" y="348" type="curve" smooth="yes"/>
    </contour>
    <contour>
      <point x="407" y="110"/>
      <point x="400" y="110"/>
      <point x="394" y="111" type="curve"/>
      <point x="526" y="558" type="line"/>
      <point x="587" y="518"/>
      <point x="624" y="443"/>
      <point x="624" y="348" type="curve" smooth="yes"/>
      <point x="624" y="206"/>
      <point x="539" y="110"/>
      <point x="414" y="110" type="curve" smooth="yes"/>
    </contour>
  </outline>
</glyph>
<glyph name="Ugrave" format="1">
  <advance width="622"/>
  <unicode hex="00D9"/>
  <outline>
    <contour>
      <point x="241" y="976" type="line"/>
      <point x="164" y="848" type="line"/>
      <point x="336" y="741" type="line"/>
      <point x="454" y="777" type="line"/>
    </contour>
    <contour>
      <point x="588" y="700" type="line"/>
      <point x="435" y="700" type="line"/>
      <point x="435" y="228" type="line" smooth="yes"/>
      <point x="435" y="133"/>
      <point x="386" y="100"/>
      <point x="311" y="100" type="curve" smooth="yes"/>
      <point x="236" y="100"/>
      <point x="187" y="133"/>
      <point x="187" y="228" type="curve" smooth="yes"/>
      <point x="187" y="700" type="line"/>
      <point x="34" y="700" type="line"/>
      <point x="33" y="228" type="line" smooth="yes"/>
      <point x="33" y="69"/>
      <point x="153" y="-12"/>
      <point x="311" y="-12" type="curve" smooth="yes"/>
      <point x="469" y="-12"/>
      <point x="589" y="69"/>
      <point x="589" y="228" type="curve"/>
    </contour>
  </outline>
</glyph>
<glyph name="Ucircumflex" format="1">
  <advance width="622"/>
  <unicode hex="00DB"/>
  <outline>
    <contour>
      <point x="312" y="833" type="line"/>
      <point x="404" y="747" type="line"/>
      <point x="526" y="785" type="line"/>
      <point x="328" y="959" type="line"/>
      <point x="313" y="974" type="line"/>
      <point x="312" y="973" type="line"/>
      <point x="311" y="974" type="line"/>
      <point x="296" y="959" type="line"/>
      <point x="98" y="785" type="line"/>
      <point x="220" y="747" type="line"/>
    </contour>
    <contour>
      <point x="588" y="700" type="line"/>
      <point x="435" y="700" type="line"/>
      <point x="435" y="228" type="line" smooth="yes"/>
      <point x="435" y="133"/>
      <point x="386" y="100"/>
      <point x="311" y="100" type="curve" smooth="yes"/>
      <point x="236" y="100"/>
      <point x="187" y="133"/>
      <point x="187" y="228" type="curve" smooth="yes"/>
      <point x="187" y="700" type="line"/>
      <point x="34" y="700" type="line"/>
      <point x="33" y="228" type="line" smooth="yes"/>
      <point x="33" y="69"/>
      <point x="153" y="-12"/>
      <point x="311" y="-12" type="curve" smooth="yes"/>
      <point x="469" y="-12"/>
      <point x="589" y="69"/>
      <point x="589" y="228" type="curve"/>
    </contour>
  </outline>
</glyph>
<glyph name="Yacute" format="1">
  <advance width="585"/>
  <unicode hex="00DD"/>
  <outline>
    <contour>
      <point x="264" y="741" type="line"/>
      <point x="436" y="848" type="line"/>
      <point x="359" y="976" type="line"/>
      <point x="146" y="777" type="line"/>
    </contour>
    <contour>
      <point x="369" y="0" type="line"/>
      <point x="369" y="308" type="line"/>
      <point x="594" y="700" type="line"/>
      <point x="436" y="700" type="line"/>
      <point x="292" y="435" type="line"/>
      <point x="149" y="700" type="line"/>
      <point x="-9" y="700" type="line"/>
      <point x="215" y="308" type="line"/>
      <point x="215" y="0" type="line"/>
    </contour>
  </outline>
</glyph>
<glyph name="acircumflex" format="1">
  <advance width="538"/>
  <unicode hex="00E2"/>
  <outline>
    <contour>
      <point x="259" y="648" type="line"/>
      <point x="351" y="562" type="line"/>
      <point x="473" y="600" type="line"/>
      <point x="275" y="774" type="line"/>
      <point x="260" y="789" type="line"/>
      <point x="259" y="788" type="line"/>
      <point x="258" y="789" type="line"/>
      <point x="243" y="774" type="line"/>
      <point x="45" y="600" type="line"/>
      <point x="167" y="562" type="line"/>
    </contour>
    <contour>
      <point x="147" y="509"/>
      <point x="36" y="424"/>
      <point x="64" y="329" type="curve"/>
      <point x="212" y="329" type="line"/>
      <point x="210" y="335"/>
      <point x="206" y="407"/>
      <point x="288" y="407" type="curve" smooth="yes"/>
      <point x="330" y="408"/>
      <point x="349" y="392"/>
      <point x="353" y="361" type="curve" smooth="yes"/>
      <point x="358" y="317"/>
      <point x="314" y="304"/>
      <point x="243" y="297" type="curve" smooth="yes"/>
      <point x="79" y="282"/>
      <point x="20" y="225"/>
      <point x="20" y="143" type="curve" smooth="yes"/>
      <point x="20" y="56"/>
      <point x="80" y="-13"/>
      <point x="210" y="-13" type="curve" smooth="yes"/>
      <point x="283" y="-13"/>
      <point x="328" y="16"/>
      <point x="355" y="57" type="curve"/>
      <point x="355" y="-0" type="line"/>
      <point x="508" y="-0" type="line"/>
      <point x="508" y="301" type="line" smooth="yes"/>
      <point x="508" y="379"/>
      <point x="489" y="509"/>
      <point x="282" y="509" type="curve" smooth="yes"/>
    </contour>
    <contour>
      <point x="191" y="81"/>
      <point x="168" y="116"/>
      <point x="168" y="148" type="curve" smooth="yes"/>
      <point x="168" y="188"/>
      <point x="206" y="207"/>
      <point x="253" y="213" type="curve" smooth="yes"/>
      <point x="289" y="217"/>
      <point x="324" y="226"/>
      <point x="355" y="239" type="curve"/>
      <point x="359" y="124"/>
      <point x="300" y="81"/>
      <point x="240" y="81" type="curve" smooth="yes"/>
    </contour>
  </outline>
</glyph>
<glyph name="atilde" format="1">
  <advance width="538"/>
  <unicode hex="00E3"/>
  <outline>
    <contour>
      <point x="309" y="752" type="line"/>
      <point x="372" y="716"/>
      <point x="375" y="663"/>
      <point x="358" y="663" type="curve" smooth="yes"/>
      <point x="335" y="663"/>
      <point x="314" y="692"/>
      <point x="290" y="709" type="curve" smooth="yes"/>
      <point x="246" y="740"/>
      <point x="223" y="752"/>
      <point x="181" y="752" type="curve" smooth="yes"/>
      <point x="75" y="752"/>
      <point x="61" y="643"/>
      <point x="122" y="582" type="curve"/>
      <point x="241" y="582" type="line"/>
      <point x="178" y="618"/>
      <point x="174" y="671"/>
      <point x="192" y="671" type="curve" smooth="yes"/>
      <point x="216" y="671"/>
      <point x="237" y="642"/>
      <point x="277" y="614" type="curve" smooth="yes"/>
      <point x="301" y="596"/>
      <point x="332" y="582"/>
      <point x="369" y="582" type="curve" smooth="yes"/>
      <point x="472" y="582"/>
      <point x="501" y="707"/>
      <point x="422" y="752" type="curve"/>
    </contour>
    <contour>
      <point x="147" y="509"/>
      <point x="36" y="424"/>
      <point x="64" y="329" type="curve"/>
      <point x="212" y="329" type="line"/>
      <point x="210" y="335"/>
      <point x="206" y="407"/>
      <point x="288" y="407" type="curve" smooth="yes"/>
      <point x="330" y="408"/>
      <point x="349" y="392"/>
      <point x="353" y="361" type="curve" smooth="yes"/>
      <point x="358" y="317"/>
      <point x="314" y="304"/>
      <point x="243" y="297" type="curve" smooth="yes"/>
      <point x="79" y="282"/>
      <point x="20" y="225"/>
      <point x="20" y="143" type="curve" smooth="yes"/>
      <point x="20" y="56"/>
      <point x="80" y="-13"/>
      <point x="210" y="-13" type="curve" smooth="yes"/>
      <point x="283" y="-13"/>
      <point x="328" y="16"/>
      <point x="355" y="57" type="curve"/>
      <point x="355" y="-0" type="line"/>
      <point x="508" y="-0" type="line"/>
      <point x="508" y="301" type="line" smooth="yes"/>
      <point x="508" y="379"/>
      <point x="489" y="509"/>
      <point x="282" y="509" type="curve" smooth="yes"/>
    </contour>
    <contour>
      <point x="191" y="81"/>
      <point x="168" y="116"/>
      <point x="168" y="148" type="curve" smooth="yes"/>
      <point x="168" y="188"/>
      <point x="206" y="207"/>
      <point x="253" y="213" type="curve" smooth="yes"/>
      <point x="289" y="217"/>
      <point x="324" y="226"/>
      <point x="355" y="239" type="curve"/>
      <point x="359" y="124"/>
      <point x="300" y="81"/>
      <point x="240" y="81" type="curve" smooth="yes"/>
    </contour>
  </outline>
</glyph>
<glyph name="aring" format="1">
  <advance width="538"/>
  <unicode hex="00E5"/>
  <outline>
    <contour>
      <point x="335" y="540"/>
      <point x="401" y="606"/>
      <point x="401" y="683" type="curve" smooth="yes"/>
      <point x="401" y="760"/>
      <point x="335" y="826"/>
      <point x="258" y="826" type="curve" smooth="yes"/>
      <point x="181" y="826"/>
      <point x="115" y="760"/>
      <point x="115" y="683" type="curve" smooth="yes"/>
      <point x="115" y="606"/>
      <point x="181" y="540"/>
      <point x="258" y="540" type="curve" smooth="yes"/>
    </contour>
    <contour>
      <point x="228" y="630"/>
      <point x="205" y="653"/>
      <point x="205" y="683" type="curve" smooth="yes"/>
      <point x="205" y="713"/>
      <point x="228" y="736"/>
      <point x="258" y="736" type="curve" smooth="yes"/>
      <point x="288" y="736"/>
      <point x="311" y="713"/>
      <point x="311" y="683" type="curve" smooth="yes"/>
      <point x="311" y="653"/>
      <point x="288" y="630"/>
      <point x="258" y="630" type="curve" smooth="yes"/>
    </contour>
    <contour>
      <point x="147" y="509"/>
      <point x="36" y="424"/>
      <point x="64" y="329" type="curve"/>
      <point x="212" y="329" type="line"/>
      <point x="210" y="335"/>
      <point x="206" y="407"/>
      <point x="288" y="407" type="curve" smooth="yes"/>
      <point x="330" y="408"/>
      <point x="349" y="392"/>
      <point x="353" y="361" type="curve" smooth="yes"/>
      <point x="358" y="317"/>
      <point x="314" y="304"/>
      <point x="243" y="297" type="curve" smooth="yes"/>
      <point x="79" y="282"/>
      <point x="20" y="225"/>
      <point x="20" y="143" type="curve" smooth="yes"/>
      <point x="20" y="56"/>
      <point x="80" y="-13"/>
      <point x="210" y="-13" type="curve" smooth="yes"/>
      <point x="283" y="-13"/>
      <point x="328" y="16"/>
      <point x="355" y="57" type="curve"/>
      <point x="355" y="-0" type="line"/>
      <point x="508" y="-0" type="line"/>
      <point x="508" y="301" type="line" smooth="yes"/>
      <point x="508" y="379"/>
      <point x="489" y="509"/>
      <point x="282" y="509" type="curve" smooth="yes"/>
    </contour>
    <contour>
      <point x="191" y="81"/>
      <point x="168" y="116"/>
      <point x="168" y="148" type="curve" smooth="yes"/>
      <point x="168" y="188"/>
      <point x="206" y="207"/>
      <point x="253" y="213" type="curve" smooth="yes"/>
      <point x="289" y="217"/>
      <point x="324" y="226"/>
      <point x="355" y="239" type="curve"/>
      <point x="359" y="124"/>
      <point x="300" y="81"/>
      <point x="240" y="81" type="curve" smooth="yes"/>
    </contour>
  </outline>
</glyph>
<glyph name="ae" format="1">
  <advance width="918"/>
  <unicode hex="00E6"/>
  <outline>
    <contour>
      <point x="775" y="186" type="line"/>
      <point x="757" y="132"/>
      <point x="721" y="95"/>
      <point x="658" y="95" type="curve" smooth="yes"/>
      <point x="593" y="95"/>
      <point x="538" y="131"/>
      <point x="524" y="215" type="curve"/>
      <point x="883" y="215" type="line"/>
      <point x="924" y="394"/>
      <point x="822" y="511"/>
      <point x="638" y="511" type="curve" smooth="yes"/>
      <point x="566" y="511"/>
      <point x="504" y="490"/>
      <point x="458" y="451" type="curve"/>
      <point x="425" y="485"/>
      <point x="371" y="509"/>
      <point x="282" y="509" type="curve" smooth="yes"/>
      <point x="147" y="509"/>
      <point x="36" y="424"/>
      <point x="64" y="329" type="curve"/>
      <point x="212" y="329" type="line"/>
      <point x="210" y="335"/>
      <point x="206" y="407"/>
      <point x="288" y="407" type="curve" smooth="yes"/>
      <point x="330" y="408"/>
      <point x="349" y="392"/>
      <point x="353" y="361" type="curve" smooth="yes"/>
      <point x="358" y="317"/>
      <point x="314" y="304"/>
      <point x="243" y="297" type="curve" smooth="yes"/>
      <point x="79" y="282"/>
      <point x="20" y="225"/>
      <point x="20" y="143" type="curve" smooth="yes"/>
      <point x="20" y="56"/>
      <point x="80" y="-13"/>
      <point x="210" y="-13" type="curve" smooth="yes"/>
      <point x="283" y="-13"/>
      <point x="328" y="16"/>
      <point x="355" y="57" type="curve"/>
      <point x="355" y="-0" type="line"/>
      <point x="508" y="-0" type="line"/>
      <point x="508" y="17" type="line"/>
      <point x="548" y="-2"/>
      <point x="595" y="-12"/>
      <point x="648" y="-12" type="curve" smooth="yes"/>
      <point x="760" y="-12"/>
      <point x="863" y="35"/>
      <point x="898" y="128" type="curve"/>
    </contour>
    <contour>
      <point x="710" y="406"/>
      <point x="748" y="368"/>
      <point x="738" y="308" type="curve"/>
      <point x="524" y="308" type="line"/>
      <point x="536" y="377"/>
      <point x="576" y="406"/>
      <point x="642" y="406" type="curve" smooth="yes"/>
    </contour>
    <contour>
      <point x="191" y="81"/>
      <point x="168" y="116"/>
      <point x="168" y="148" type="curve" smooth="yes"/>
      <point x="168" y="188"/>
      <point x="206" y="207"/>
      <point x="253" y="213" type="curve" smooth="yes"/>
      <point x="289" y="217"/>
      <point x="324" y="226"/>
      <point x="355" y="239" type="curve"/>
      <point x="359" y="124"/>
      <point x="300" y="81"/>
      <point x="240" y="81" type="curve" smooth="yes"/>
    </contour>
  </outline>
</glyph>
<glyph name="ccedilla" format="1">
  <advance width="599"/>
  <unicode hex="00E7"/>
  <outline>
    <contour>
      <point x="433" y="213" type="line"/>
      <point x="431" y="143"/>
      <point x="408" y="95"/>
      <point x="312" y="95" type="curve" smooth="yes"/>
      <point x="248" y="95"/>
      <point x="189" y="141"/>
      <point x="189" y="245" type="curve" smooth="yes"/>
      <point x="189" y="350"/>
      <point x="238" y="406"/>
      <point x="318" y="406" type="curve" smooth="yes"/>
      <point x="394" y="406"/>
      <point x="429" y="371"/>
      <point x="438" y="295" type="curve"/>
      <point x="565" y="365" type="line"/>
      <point x="537" y="452"/>
      <point x="448" y="511"/>
      <point x="318" y="511" type="curve" smooth="yes"/>
      <point x="154" y="511"/>
      <point x="30" y="413"/>
      <point x="30" y="245" type="curve" smooth="yes"/>
      <point x="30" y="99"/>
      <point x="133" y="12"/>
      <point x="256" y="-8" type="curve"/>
      <point x="211" y="-107" type="line"/>
      <point x="302" y="-107" type="line"/>
      <point x="306" y="-100"/>
      <point x="315" y="-92"/>
      <point x="327" y="-92" type="curve" smooth="yes"/>
      <point x="337" y="-92"/>
      <point x="348" y="-98"/>
      <point x="344" y="-117" type="curve" smooth="yes"/>
      <point x="340" y="-136"/>
      <point x="314" y="-148"/>
      <point x="283" y="-148" type="curve" smooth="yes"/>
      <point x="247" y="-148"/>
      <point x="211" y="-134"/>
      <point x="199" y="-124" type="curve"/>
      <point x="199" y="-193" type="line"/>
      <point x="216" y="-205"/>
      <point x="245" y="-211"/>
      <point x="277" y="-211" type="curve" smooth="yes"/>
      <point x="331" y="-211"/>
      <point x="406" y="-190"/>
      <point x="421" y="-120" type="curve" smooth="yes"/>
      <point x="433" y="-60"/>
      <point x="389" y="-32"/>
      <point x="340" y="-32" type="curve" smooth="yes"/>
      <point x="322" y="-32"/>
      <point x="301" y="-39"/>
      <point x="293" y="-44" type="curve"/>
      <point x="315" y="-12" type="line"/>
      <point x="447" y="-11"/>
      <point x="541" y="57"/>
      <point x="569" y="156" type="curve"/>
    </contour>
  </outline>
</glyph>
<glyph name="eacute" format="1">
  <advance width="557"/>
  <unicode hex="00E9"/>
  <outline>
    <contour>
      <point x="250" y="542" type="line"/>
      <point x="422" y="649" type="line"/>
      <point x="345" y="777" type="line"/>
      <point x="132" y="578" type="line"/>
    </contour>
    <contour>
      <point x="414" y="186" type="line"/>
      <point x="396" y="132"/>
      <point x="360" y="95"/>
      <point x="297" y="95" type="curve" smooth="yes"/>
      <point x="232" y="95"/>
      <point x="177" y="131"/>
      <point x="163" y="215" type="curve"/>
      <point x="522" y="215" type="line"/>
      <point x="563" y="394"/>
      <point x="461" y="511"/>
      <point x="277" y="511" type="curve" smooth="yes"/>
      <point x="122" y="511"/>
      <point x="14" y="413"/>
      <point x="14" y="255" type="curve" smooth="yes"/>
      <point x="14" y="78"/>
      <point x="126" y="-12"/>
      <point x="287" y="-12" type="curve" smooth="yes"/>
      <point x="399" y="-12"/>
      <point x="502" y="35"/>
      <point x="537" y="128" type="curve"/>
    </contour>
    <contour>
      <point x="349" y="406"/>
      <point x="387" y="368"/>
      <point x="377" y="308" type="curve"/>
      <point x="163" y="308" type="line"/>
      <point x="175" y="377"/>
      <point x="215" y="406"/>
      <point x="281" y="406" type="curve" smooth="yes"/>
    </contour>
  </outline>
</glyph>
<glyph name="ecircumflex" format="1">
  <advance width="557"/>
  <unicode hex="00EA"/>
  <outline>
    <contour>
      <point x="188" y="548" type="line"/>
      <point x="280" y="634" type="line"/>
      <point x="372" y="548" type="line"/>
      <point x="494" y="586" type="line"/>
      <point x="296" y="760" type="line"/>
      <point x="281" y="775" type="line"/>
      <point x="280" y="774" type="line"/>
      <point x="279" y="775" type="line"/>
      <point x="264" y="760" type="line"/>
      <point x="66" y="586" type="line"/>
    </contour>
    <contour>
      <point x="414" y="186" type="line"/>
      <point x="396" y="132"/>
      <point x="360" y="95"/>
      <point x="297" y="95" type="curve" smooth="yes"/>
      <point x="232" y="95"/>
      <point x="177" y="131"/>
      <point x="163" y="215" type="curve"/>
      <point x="522" y="215" type="line"/>
      <point x="563" y="394"/>
      <point x="461" y="511"/>
      <point x="277" y="511" type="curve" smooth="yes"/>
      <point x="122" y="511"/>
      <point x="14" y="413"/>
      <point x="14" y="255" type="curve" smooth="yes"/>
      <point x="14" y="78"/>
      <point x="126" y="-12"/>
      <point x="287" y="-12" type="curve" smooth="yes"/>
      <point x="399" y="-12"/>
      <point x="502" y="35"/>
      <point x="537" y="128" type="curve"/>
    </contour>
    <contour>
      <point x="349" y="406"/>
      <point x="387" y="368"/>
      <point x="377" y="308" type="curve"/>
      <point x="163" y="308" type="line"/>
      <point x="175" y="377"/>
      <point x="215" y="406"/>
      <point x="281" y="406" type="curve" smooth="yes"/>
    </contour>
  </outline>
</glyph>
<glyph name="edieresis" format="1">
  <advance width="557"/>
  <unicode hex="00EB"/>
  <outline>
    <contour>
      <point x="232" y="562" type="line"/>
      <point x="232" y="686" type="line"/>
      <point x="78" y="686" type="line"/>
      <point x="78" y="562" type="line"/>
    </contour>
    <contour>
      <point x="480" y="562" type="line"/>
      <point x="480" y="686" type="line"/>
      <point x="326" y="686" type="line"/>
      <point x="326" y="562" type="line"/>
    </contour>
    <contour>
      <point x="414" y="186" type="line"/>
      <point x="396" y="132"/>
      <point x="360" y="95"/>
      <point x="297" y="95" type="curve" smooth="yes"/>
      <point x="232" y="95"/>
      <point x="177" y="131"/>
      <point x="163" y="215" type="curve"/>
      <point x="522" y="215" type="line"/>
      <point x="563" y="394"/>
      <point x="461" y="511"/>
      <point x="277" y="511" type="curve" smooth="yes"/>
      <point x="122" y="511"/>
      <point x="14" y="413"/>
      <point x="14" y="255" type="curve" smooth="yes"/>
      <point x="14" y="78"/>
      <point x="126" y="-12"/>
      <point x="287" y="-12" type="curve" smooth="yes"/>
      <point x="399" y="-12"/>
      <point x="502" y="35"/>
      <point x="537" y="128" type="curve"/>
    </contour>
    <contour>
      <point x="349" y="406"/>
      <point x="387" y="368"/>
      <point x="377" y="308" type="curve"/>
      <point x="163" y="308" type="line"/>
      <point x="175" y="377"/>
      <point x="215" y="406"/>
      <point x="281" y="406" type="curve" smooth="yes"/>
    </contour>
  </outline>
</glyph>
<glyph name="igrave" format="1">
  <advance width="248"/>
  <unicode hex="00EC"/>
  <outline>
    <contour>
      <point x="54" y="777" type="line"/>
      <point x="-23" y="649" type="line"/>
      <point x="149" y="542" type="line"/>
      <point x="267" y="578" type="line"/>
    </contour>
    <contour>
      <point x="48" y="500" type="line"/>
      <point x="48" y="0" type="line"/>
      <point x="200" y="0" type="line"/>
      <point x="200" y="500" type="line"/>
    </contour>
  </outline>
</glyph>
<glyph name="iacute" format="1">
  <advance width="248"/>
  <unicode hex="00ED"/>
  <outline>
    <contour>
      <point x="95" y="542" type="line"/>
      <point x="267" y="649" type="line"/>
      <point x="190" y="777" type="line"/>
      <point x="-23" y="578" type="line"/>
    </contour>
    <contour>
      <point x="48" y="500" type="line"/>
      <point x="48" y="0" type="line"/>
      <point x="200" y="0" type="line"/>
      <point x="200" y="500" type="line"/>
    </contour>
  </outline>
</glyph>
<glyph name="icircumflex" format="1">
  <advance width="248"/>
  <unicode hex="00EE"/>
  <outline>
    <contour>
      <point x="125" y="634" type="line"/>
      <point x="217" y="548" type="line"/>
      <point x="339" y="586" type="line"/>
      <point x="141" y="760" type="line"/>
      <point x="126" y="775" type="line"/>
      <point x="125" y="774" type="line"/>
      <point x="124" y="775" type="line"/>
      <point x="109" y="760" type="line"/>
      <point x="-89" y="586" type="line"/>
      <point x="33" y="548" type="line"/>
    </contour>
    <contour>
      <point x="48" y="500" type="line"/>
      <point x="48" y="0" type="line"/>
      <point x="200" y="0" type="line"/>
      <point x="200" y="500" type="line"/>
    </contour>
  </outline>
</glyph>
<glyph name="idieresis" format="1">
  <advance width="248"/>
  <unicode hex="00EF"/>
  <outline>
    <contour>
      <point x="-77" y="686" type="line"/>
      <point x="-77" y="562" type="line"/>
      <point x="77" y="562" type="line"/>
      <point x="77" y="686" type="line"/>
    </contour>
    <contour>
      <point x="171" y="686" type="line"/>
      <point x="171" y="562" type="line"/>
      <point x="325" y="562" type="line"/>
      <point x="325" y="686" type="line"/>
    </contour>
    <contour>
      <point x="48" y="500" type="line"/>
      <point x="48" y="0" type="line"/>
      <point x="200" y="0" type="line"/>
      <point x="200" y="500" type="line"/>
    </contour>
  </outline>
</glyph>
<glyph name="eth" format="1">
  <advance width="573"/>
  <unicode hex="00F0"/>
  <outline>
    <contour>
      <point x="566" y="486"/>
      <point x="483" y="618"/>
      <point x="346" y="698" type="curve"/>
      <point x="394" y="740" type="line"/>
      <point x="331" y="814" type="line"/>
      <point x="249" y="743" type="line"/>
      <point x="191" y="763"/>
      <point x="127" y="776"/>
      <point x="57" y="781" type="curve"/>
      <point x="57" y="665" type="line"/>
      <point x="87" y="662"/>
      <point x="116" y="656"/>
      <point x="142" y="650" type="curve"/>
      <point x="103" y="616" type="line"/>
      <point x="166" y="543" type="line"/>
      <point x="245" y="611" type="line"/>
      <point x="296" y="584"/>
      <point x="334" y="549"/>
      <point x="363" y="507" type="curve"/>
      <point x="339" y="514"/>
      <point x="315" y="518"/>
      <point x="288" y="518" type="curve" smooth="yes"/>
      <point x="281" y="518"/>
      <point x="270" y="518"/>
      <point x="261" y="517" type="curve" smooth="yes"/>
      <point x="113" y="501"/>
      <point x="25" y="390"/>
      <point x="25" y="263" type="curve" smooth="yes"/>
      <point x="25" y="254"/>
      <point x="26" y="242"/>
      <point x="27" y="232" type="curve" smooth="yes"/>
      <point x="41" y="101"/>
      <point x="143" y="-4"/>
      <point x="286" y="-4" type="curve" smooth="yes"/>
      <point x="298" y="-4"/>
      <point x="308" y="-3"/>
      <point x="318" y="-2" type="curve" smooth="yes"/>
      <point x="460" y="13"/>
      <point x="537" y="125"/>
      <point x="555" y="221" type="curve"/>
      <point x="564" y="259"/>
      <point x="566" y="294"/>
      <point x="566" y="326" type="curve" smooth="yes"/>
    </contour>
    <contour>
      <point x="290" y="108" type="line" smooth="yes"/>
      <point x="229" y="108"/>
      <point x="179" y="171"/>
      <point x="179" y="267" type="curve" smooth="yes"/>
      <point x="179" y="345"/>
      <point x="220" y="398"/>
      <point x="278" y="406" type="curve" smooth="yes"/>
      <point x="326" y="413"/>
      <point x="415" y="380"/>
      <point x="415" y="251" type="curve" smooth="yes"/>
      <point x="415" y="245"/>
      <point x="415" y="239"/>
      <point x="414" y="234" type="curve"/>
      <point x="411" y="212" type="line"/>
      <point x="398" y="149"/>
      <point x="353" y="112"/>
      <point x="300" y="108" type="curve"/>
    </contour>
  </outline>
</glyph>
<glyph name="ntilde" format="1">
  <advance width="560"/>
  <unicode hex="00F1"/>
  <outline>
    <contour>
      <point x="310" y="763" type="line"/>
      <point x="373" y="727"/>
      <point x="376" y="674"/>
      <point x="359" y="674" type="curve" smooth="yes"/>
      <point x="336" y="674"/>
      <point x="315" y="703"/>
      <point x="291" y="720" type="curve" smooth="yes"/>
      <point x="247" y="751"/>
      <point x="224" y="763"/>
      <point x="182" y="763" type="curve" smooth="yes"/>
      <point x="76" y="763"/>
      <point x="62" y="654"/>
      <point x="123" y="593" type="curve"/>
      <point x="242" y="593" type="line"/>
      <point x="179" y="629"/>
      <point x="175" y="682"/>
      <point x="193" y="682" type="curve" smooth="yes"/>
      <point x="217" y="682"/>
      <point x="238" y="653"/>
      <point x="278" y="625" type="curve" smooth="yes"/>
      <point x="302" y="607"/>
      <point x="333" y="593"/>
      <point x="370" y="593" type="curve" smooth="yes"/>
      <point x="473" y="593"/>
      <point x="502" y="718"/>
      <point x="423" y="763" type="curve"/>
    </contour>
    <contour>
      <point x="251" y="507"/>
      <point x="208" y="486"/>
      <point x="177" y="453" type="curve"/>
      <point x="177" y="500" type="line"/>
      <point x="25" y="500" type="line"/>
      <point x="25" y="0" type="line"/>
      <point x="177" y="0" type="line"/>
      <point x="177" y="264" type="line"/>
      <point x="186" y="361"/>
      <point x="248" y="399"/>
      <point x="296" y="399" type="curve" smooth="yes"/>
      <point x="358" y="399"/>
      <point x="379" y="361"/>
      <point x="379" y="294" type="curve" smooth="yes"/>
      <point x="379" y="0" type="line"/>
      <point x="531" y="0" type="line"/>
      <point x="531" y="294" type="line" smooth="yes"/>
      <point x="531" y="391"/>
      <point x="489" y="507"/>
      <point x="307" y="507" type="curve" smooth="yes"/>
    </contour>
  </outline>
</glyph>
<glyph name="oacute" format="1">
  <advance width="564"/>
  <unicode hex="00F3"/>
  <outline>
    <contour>
      <point x="253" y="542" type="line"/>
      <point x="425" y="649" type="line"/>
      <point x="348" y="777" type="line"/>
      <point x="135" y="578" type="line"/>
    </contour>
    <contour>
      <point x="438" y="-12"/>
      <point x="544" y="108"/>
      <point x="544" y="247" type="curve" smooth="yes"/>
      <point x="544" y="387"/>
      <point x="438" y="510"/>
      <point x="282" y="510" type="curve" smooth="yes"/>
      <point x="126" y="510"/>
      <point x="20" y="387"/>
      <point x="20" y="247" type="curve" smooth="yes"/>
      <point x="20" y="108"/>
      <point x="126" y="-12"/>
      <point x="282" y="-12" type="curve" smooth="yes"/>
    </contour>
    <contour>
      <point x="219" y="93"/>
      <point x="170" y="153"/>
      <point x="170" y="247" type="curve" smooth="yes"/>
      <point x="170" y="342"/>
      <point x="219" y="402"/>
      <point x="282" y="402" type="curve" smooth="yes"/>
      <point x="345" y="402"/>
      <point x="394" y="342"/>
      <point x="394" y="247" type="curve" smooth="yes"/>
      <point x="394" y="153"/>
      <point x="345" y="93"/>
      <point x="282" y="93" type="curve" smooth="yes"/>
    </contour>
  </outline>
</glyph>
<glyph name="ocircumflex" format="1">
  <advance width="564"/>
  <unicode hex="00F4"/>
  <outline>
    <contour>
      <point x="268" y="634" type="line"/>
      <point x="360" y="548" type="line"/>
      <point x="482" y="586" type="line"/>
      <point x="284" y="760" type="line"/>
      <point x="269" y="775" type="line"/>
      <point x="268" y="774" type="line"/>
      <point x="267" y="775" type="line"/>
      <point x="252" y="760" type="line"/>
      <point x="54" y="586" type="line"/>
      <point x="176" y="548" type="line"/>
    </contour>
    <contour>
      <point x="438" y="-12"/>
      <point x="544" y="108"/>
      <point x="544" y="247" type="curve" smooth="yes"/>
      <point x="544" y="387"/>
      <point x="438" y="510"/>
      <point x="282" y="510" type="curve" smooth="yes"/>
      <point x="126" y="510"/>
      <point x="20" y="387"/>
      <point x="20" y="247" type="curve" smooth="yes"/>
      <point x="20" y="108"/>
      <point x="126" y="-12"/>
      <point x="282" y="-12" type="curve" smooth="yes"/>
    </contour>
    <contour>
      <point x="219" y="93"/>
      <point x="170" y="153"/>
      <point x="170" y="247" type="curve" smooth="yes"/>
      <point x="170" y="342"/>
      <point x="219" y="402"/>
      <point x="282" y="402" type="curve" smooth="yes"/>
      <point x="345" y="402"/>
      <point x="394" y="342"/>
      <point x="394" y="247" type="curve" smooth="yes"/>
      <point x="394" y="153"/>
      <point x="345" y="93"/>
      <point x="282" y="93" type="curve" smooth="yes"/>
    </contour>
  </outline>
</glyph>
<glyph name="otilde" format="1">
  <advance width="564"/>
  <unicode hex="00F5"/>
  <outline>
    <contour>
      <point x="297" y="744" type="line"/>
      <point x="360" y="708"/>
      <point x="363" y="655"/>
      <point x="346" y="655" type="curve" smooth="yes"/>
      <point x="323" y="655"/>
      <point x="302" y="684"/>
      <point x="278" y="701" type="curve" smooth="yes"/>
      <point x="234" y="732"/>
      <point x="211" y="744"/>
      <point x="169" y="744" type="curve" smooth="yes"/>
      <point x="63" y="744"/>
      <point x="49" y="635"/>
      <point x="110" y="574" type="curve"/>
      <point x="229" y="574" type="line"/>
      <point x="166" y="610"/>
      <point x="162" y="663"/>
      <point x="180" y="663" type="curve" smooth="yes"/>
      <point x="204" y="663"/>
      <point x="225" y="634"/>
      <point x="265" y="606" type="curve" smooth="yes"/>
      <point x="289" y="588"/>
      <point x="320" y="574"/>
      <point x="357" y="574" type="curve" smooth="yes"/>
      <point x="460" y="574"/>
      <point x="489" y="699"/>
      <point x="410" y="744" type="curve"/>
    </contour>
    <contour>
      <point x="438" y="-12"/>
      <point x="544" y="108"/>
      <point x="544" y="247" type="curve" smooth="yes"/>
      <point x="544" y="387"/>
      <point x="438" y="510"/>
      <point x="282" y="510" type="curve" smooth="yes"/>
      <point x="126" y="510"/>
      <point x="20" y="387"/>
      <point x="20" y="247" type="curve" smooth="yes"/>
      <point x="20" y="108"/>
      <point x="126" y="-12"/>
      <point x="282" y="-12" type="curve" smooth="yes"/>
    </contour>
    <contour>
      <point x="219" y="93"/>
      <point x="170" y="153"/>
      <point x="170" y="247" type="curve" smooth="yes"/>
      <point x="170" y="342"/>
      <point x="219" y="402"/>
      <point x="282" y="402" type="curve" smooth="yes"/>
      <point x="345" y="402"/>
      <point x="394" y="342"/>
      <point x="394" y="247" type="curve" smooth="yes"/>
      <point x="394" y="153"/>
      <point x="345" y="93"/>
      <point x="282" y="93" type="curve" smooth="yes"/>
    </contour>
  </outline>
</glyph>
<glyph name="odieresis" format="1">
  <advance width="564"/>
  <unicode hex="00F6"/>
  <outline>
    <contour>
      <point x="81" y="686" type="line"/>
      <point x="81" y="562" type="line"/>
      <point x="235" y="562" type="line"/>
      <point x="235" y="686" type="line"/>
    </contour>
    <contour>
      <point x="329" y="686" type="line"/>
      <point x="329" y="562" type="line"/>
      <point x="483" y="562" type="line"/>
      <point x="483" y="686" type="line"/>
    </contour>
    <contour>
      <point x="438" y="-12"/>
      <point x="544" y="108"/>
      <point x="544" y="247" type="curve" smooth="yes"/>
      <point x="544" y="387"/>
      <point x="438" y="510"/>
      <point x="282" y="510" type="curve" smooth="yes"/>
      <point x="126" y="510"/>
      <point x="20" y="387"/>
      <point x="20" y="247" type="curve" smooth="yes"/>
      <point x="20" y="108"/>
      <point x="126" y="-12"/>
      <point x="282" y="-12" type="curve" smooth="yes"/>
    </contour>
    <contour>
      <point x="219" y="93"/>
      <point x="170" y="153"/>
      <point x="170" y="247" type="curve" smooth="yes"/>
      <point x="170" y="342"/>
      <point x="219" y="402"/>
      <point x="282" y="402" type="curve" smooth="yes"/>
      <point x="345" y="402"/>
      <point x="394" y="342"/>
      <point x="394" y="247" type="curve" smooth="yes"/>
      <point x="394" y="153"/>
      <point x="345" y="93"/>
      <point x="282" y="93" type="curve" smooth="yes"/>
    </contour>
  </outline>
</glyph>
<glyph name="oslash" format="1">
  <advance width="564"/>
  <unicode hex="00F8"/>
  <outline>
    <contour>
      <point x="474" y="685" type="line"/>
      <point x="354" y="685" type="line"/>
      <point x="302" y="509" type="line"/>
      <point x="295" y="510"/>
      <point x="289" y="510"/>
      <point x="282" y="510" type="curve" smooth="yes"/>
      <point x="126" y="510"/>
      <point x="20" y="387"/>
      <point x="20" y="247" type="curve" smooth="yes"/>
      <point x="20" y="150"/>
      <point x="72" y="62"/>
      <point x="156" y="18" type="curve"/>
      <point x="105" y="-154" type="line"/>
      <point x="225" y="-154" type="line"/>
      <point x="267" y="-12" type="line"/>
      <point x="272" y="-12"/>
      <point x="277" y="-12"/>
      <point x="282" y="-12" type="curve" smooth="yes"/>
      <point x="438" y="-12"/>
      <point x="544" y="108"/>
      <point x="544" y="247" type="curve" smooth="yes"/>
      <point x="544" y="343"/>
      <point x="494" y="431"/>
      <point x="412" y="477" type="curve"/>
    </contour>
    <contour>
      <point x="170" y="336"/>
      <point x="213" y="394"/>
      <point x="270" y="401" type="curve"/>
      <point x="194" y="147" type="line"/>
      <point x="179" y="173"/>
      <point x="170" y="207"/>
      <point x="170" y="247" type="curve" smooth="yes"/>
    </contour>
    <contour>
      <point x="373" y="343" type="line"/>
      <point x="386" y="318"/>
      <point x="394" y="285"/>
      <point x="394" y="247" type="curve" smooth="yes"/>
      <point x="394" y="162"/>
      <point x="353" y="104"/>
      <point x="299" y="94" type="curve"/>
    </contour>
  </outline>
</glyph>
<glyph name="ugrave" format="1">
  <advance width="566"/>
  <unicode hex="00F9"/>
  <outline>
    <contour>
      <point x="213" y="776" type="line"/>
      <point x="136" y="648" type="line"/>
      <point x="308" y="541" type="line"/>
      <point x="426" y="577" type="line"/>
    </contour>
    <contour>
      <point x="536" y="0" type="line"/>
      <point x="536" y="500" type="line"/>
      <point x="384" y="500" type="line"/>
      <point x="384" y="252" type="line" smooth="yes"/>
      <point x="381" y="126"/>
      <point x="319" y="101"/>
      <point x="265" y="101" type="curve" smooth="yes"/>
      <point x="203" y="101"/>
      <point x="182" y="139"/>
      <point x="182" y="206" type="curve" smooth="yes"/>
      <point x="182" y="500" type="line"/>
      <point x="30" y="500" type="line"/>
      <point x="30" y="206" type="line" smooth="yes"/>
      <point x="30" y="109"/>
      <point x="72" y="-7"/>
      <point x="254" y="-7" type="curve" smooth="yes"/>
      <point x="314" y="-7"/>
      <point x="356" y="15"/>
      <point x="384" y="51" type="curve"/>
      <point x="384" y="0" type="line"/>
    </contour>
  </outline>
</glyph>
<glyph name="ucircumflex" format="1">
  <advance width="566"/>
  <unicode hex="00FB"/>
  <outline>
    <contour>
      <point x="279" y="633" type="line"/>
      <point x="371" y="547" type="line"/>
      <point x="493" y="585" type="line"/>
      <point x="295" y="759" type="line"/>
      <point x="280" y="774" type="line"/>
      <point x="279" y="773" type="line"/>
      <point x="278" y="774" type="line"/>
      <point x="263" y="759" type="line"/>
      <point x="65" y="585" type="line"/>
      <point x="187" y="547" type="line"/>
    </contour>
    <contour>
      <point x="536" y="0" type="line"/>
      <point x="536" y="500" type="line"/>
      <point x="384" y="500" type="line"/>
      <point x="384" y="252" type="line" smooth="yes"/>
      <point x="381" y="126"/>
      <point x="319" y="101"/>
      <point x="265" y="101" type="curve" smooth="yes"/>
      <point x="203" y="101"/>
      <point x="182" y="139"/>
      <point x="182" y="206" type="curve" smooth="yes"/>
      <point x="182" y="500" type="line"/>
      <point x="30" y="500" type="line"/>
      <point x="30" y="206" type="line" smooth="yes"/>
      <point x="30" y="109"/>
      <point x="72" y="-7"/>
      <point x="254" y="-7" type="curve" smooth="yes"/>
      <point x="314" y="-7"/>
      <point x="356" y="15"/>
      <point x="384" y="51" type="curve"/>
      <point x="384" y="0" type="line"/>
    </contour>
  </outline>
</glyph>
<glyph name="udieresis" format="1">
  <advance width="566"/>
  <unicode hex="00FC"/>
  <outline>
    <contour>
      <point x="82" y="685" type="line"/>
      <point x="82" y="561" type="line"/>
      <point x="236" y="561" type="line"/>
      <point x="236" y="685" type="line"/>
    </contour>
    <contour>
      <point x="330" y="685" type="line"/>
      <point x="330" y="561" type="line"/>
      <point x="484" y="561" type="line"/>
      <point x="484" y="685" type="line"/>
    </contour>
    <contour>
      <point x="536" y="0" type="line"/>
      <point x="536" y="500" type="line"/>
      <point x="384" y="500" type="line"/>
      <point x="384" y="252" type="line" smooth="yes"/>
      <point x="381" y="126"/>
      <point x="319" y="101"/>
      <point x="265" y="101" type="curve" smooth="yes"/>
      <point x="203" y="101"/>
      <point x="182" y="139"/>
      <point x="182" y="206" type="curve" smooth="yes"/>
      <point x="182" y="500" type="line"/>
      <point x="30" y="500" type="line"/>
      <point x="30" y="206" type="line" smooth="yes"/>
      <point x="30" y="109"/>
      <point x="72" y="-7"/>
      <point x="254" y="-7" type="curve" smooth="yes"/>
      <point x="314" y="-7"/>
      <point x="356" y="15"/>
      <point x="384" y="51" type="curve"/>
      <point x="384" y="0" type="line"/>
    </contour>
  </outline>
</glyph>
<glyph name="yacute" format="1">
  <advance width="578"/>
  <unicode hex="00FD"/>
  <outline>
    <contour>
      <point x="258" y="538" type="line"/>
      <point x="430" y="645" type="line"/>
      <point x="353" y="773" type="line"/>
      <point x="140" y="574" type="line"/>
    </contour>
    <contour>
      <point x="278" y="-200" type="line"/>
      <point x="563" y="500" type="line"/>
      <point x="407" y="500" type="line"/>
      <point x="304" y="247" type="line"/>
      <point x="182" y="500" type="line"/>
      <point x="15" y="500" type="line"/>
      <point x="229" y="65" type="line"/>
      <point x="121" y="-200" type="line"/>
    </contour>
  </outline>
</glyph>
<glyph name="ydieresis" format="1">
  <advance width="578"/>
  <unicode hex="00FF"/>
  <outline>
    <contour>
      <point x="86" y="682" type="line"/>
      <point x="86" y="558" type="line"/>
      <point x="240" y="558" type="line"/>
      <point x="240" y="682" type="line"/>
    </contour>
    <contour>
      <point x="334" y="682" type="line"/>
      <point x="334" y="558" type="line"/>
      <point x="488" y="558" type="line"/>
      <point x="488" y="682" type="line"/>
    </contour>
    <contour>
      <point x="278" y="-200" type="line"/>
      <point x="563" y="500" type="line"/>
      <point x="407" y="500" type="line"/>
      <point x="304" y="247" type="line"/>
      <point x="182" y="500" type="line"/>
      <point x="15" y="500" type="line"/>
      <point x="229" y="65" type="line"/>
      <point x="121" y="-200" type="line"/>
    </contour>
  </outline>
</glyph>
<glyph name="Lslash" format="1">
  <advance width="697"/>
  <unicode hex="0141"/>
  <outline>
    <contour>
      <point x="700" y="124" type="line"/>
      <point x="318" y="124" type="line"/>
      <point x="318" y="364" type="line"/>
      <point x="406" y="389" type="line"/>
      <point x="404" y="514" type="line"/>
      <point x="318" y="489" type="line"/>
      <point x="318" y="700" type="line"/>
      <point x="165" y="700" type="line"/>
      <point x="165" y="446" type="line"/>
      <point x="34" y="408" type="line"/>
      <point x="35" y="283" type="line"/>
      <point x="165" y="320" type="line"/>
      <point x="165" y="0" type="line"/>
      <point x="700" y="0" type="line"/>
    </contour>
  </outline>
</glyph>
<glyph name="lslash" format="1">
  <advance width="472"/>
  <unicode hex="0142"/>
  <outline>
    <contour>
      <point x="313" y="358" type="line"/>
      <point x="420" y="389" type="line"/>
      <point x="419" y="512" type="line"/>
      <point x="313" y="482" type="line"/>
      <point x="313" y="700" type="line"/>
      <point x="161" y="700" type="line"/>
      <point x="161" y="438" type="line"/>
      <point x="52" y="407" type="line"/>
      <point x="53" y="284" type="line"/>
      <point x="161" y="315" type="line"/>
      <point x="161" y="0" type="line"/>
      <point x="313" y="0" type="line"/>
    </contour>
  </outline>
</glyph>
<glyph name="OE" format="1">
  <advance width="1157"/>
  <unicode hex="0152"/>
  <outline>
    <contour>
      <point x="1153" y="124" type="line"/>
      <point x="728" y="124" type="line"/>
      <point x="728" y="296" type="line"/>
      <point x="1133" y="296" type="line"/>
      <point x="1133" y="420" type="line"/>
      <point x="728" y="420" type="line"/>
      <point x="728" y="576" type="line"/>
      <point x="1143" y="576" type="line"/>
      <point x="1143" y="700" type="line"/>
      <point x="574" y="700" type="line"/>
      <point x="574" y="657" type="line"/>
      <point x="521" y="686"/>
      <point x="455" y="705"/>
      <point x="384" y="705" type="curve" smooth="yes"/>
      <point x="164" y="705"/>
      <point x="20" y="538"/>
      <point x="20" y="348" type="curve" smooth="yes"/>
      <point x="20" y="160"/>
      <point x="166" y="-5"/>
      <point x="384" y="-5" type="curve" smooth="yes"/>
      <point x="455" y="-5"/>
      <point x="521" y="13"/>
      <point x="574" y="42" type="curve"/>
      <point x="574" y="-0" type="line"/>
      <point x="1153" y="-0" type="line"/>
    </contour>
    <contour>
      <point x="259" y="110"/>
      <point x="174" y="206"/>
      <point x="174" y="348" type="curve" smooth="yes"/>
      <point x="174" y="492"/>
      <point x="260" y="590"/>
      <point x="384" y="590" type="curve" smooth="yes"/>
      <point x="473" y="590"/>
      <point x="542" y="540"/>
      <point x="574" y="460" type="curve"/>
      <point x="574" y="238" type="line"/>
      <point x="542" y="159"/>
      <point x="473" y="110"/>
      <point x="384" y="110" type="curve" smooth="yes"/>
    </contour>
  </outline>
</glyph>
<glyph name="oe" format="1">
  <advance width="953"/>
  <unicode hex="0153"/>
  <outline>
    <contour>
      <point x="810" y="186" type="line"/>
      <point x="792" y="132"/>
      <point x="756" y="95"/>
      <point x="693" y="95" type="curve" smooth="yes"/>
      <point x="628" y="95"/>
      <point x="573" y="131"/>
      <point x="559" y="215" type="curve"/>
      <point x="918" y="215" type="line"/>
      <point x="959" y="394"/>
      <point x="857" y="511"/>
      <point x="673" y="511" type="curve" smooth="yes"/>
      <point x="589" y="511"/>
      <point x="519" y="482"/>
      <point x="472" y="431" type="curve"/>
      <point x="426" y="479"/>
      <point x="360" y="510"/>
      <point x="282" y="510" type="curve" smooth="yes"/>
      <point x="126" y="510"/>
      <point x="20" y="387"/>
      <point x="20" y="247" type="curve" smooth="yes"/>
      <point x="20" y="108"/>
      <point x="126" y="-12"/>
      <point x="282" y="-12" type="curve" smooth="yes"/>
      <point x="361" y="-12"/>
      <point x="428" y="19"/>
      <point x="474" y="68" type="curve"/>
      <point x="522" y="15"/>
      <point x="595" y="-12"/>
      <point x="683" y="-12" type="curve" smooth="yes"/>
      <point x="795" y="-12"/>
      <point x="898" y="35"/>
      <point x="933" y="128" type="curve"/>
    </contour>
    <contour>
      <point x="745" y="406"/>
      <point x="783" y="368"/>
      <point x="773" y="308" type="curve"/>
      <point x="559" y="308" type="line"/>
      <point x="571" y="377"/>
      <point x="611" y="406"/>
      <point x="677" y="406" type="curve" smooth="yes"/>
    </contour>
    <contour>
      <point x="219" y="93"/>
      <point x="170" y="153"/>
      <point x="170" y="247" type="curve" smooth="yes"/>
      <point x="170" y="342"/>
      <point x="219" y="402"/>
      <point x="282" y="402" type="curve" smooth="yes"/>
      <point x="345" y="402"/>
      <point x="394" y="342"/>
      <point x="394" y="247" type="curve" smooth="yes"/>
      <point x="394" y="153"/>
      <point x="345" y="93"/>
      <point x="282" y="93" type="curve" smooth="yes"/>
    </contour>
  </outline>
</glyph>
<glyph name="Ydieresis" format="1">
  <advance width="585"/>
  <unicode hex="0178"/>
  <outline>
    <contour>
      <point x="92" y="885" type="line"/>
      <point x="92" y="761" type="line"/>
      <point x="246" y="761" type="line"/>
      <point x="246" y="885" type="line"/>
    </contour>
    <contour>
      <point x="340" y="885" type="line"/>
      <point x="340" y="761" type="line"/>
      <point x="494" y="761" type="line"/>
      <point x="494" y="885" type="line"/>
    </contour>
    <contour>
      <point x="369" y="0" type="line"/>
      <point x="369" y="308" type="line"/>
      <point x="594" y="700" type="line"/>
      <point x="436" y="700" type="line"/>
      <point x="292" y="435" type="line"/>
      <point x="149" y="700" type="line"/>
      <point x="-9" y="700" type="line"/>
      <point x="215" y="308" type="line"/>
      <point x="215" y="0" type="line"/>
    </contour>
  </outline>
</glyph>
<glyph name="Zcaron" format="1">
  <advance width="615"/>
  <unicode hex="017D"/>
  <outline>
    <contour>
      <point x="310" y="745" type="line"/>
      <point x="523" y="944" type="line"/>
      <point x="425" y="950" type="line"/>
      <point x="310" y="878" type="line"/>
      <point x="195" y="950" type="line"/>
      <point x="97" y="944" type="line"/>
    </contour>
    <contour>
      <point x="592" y="576" type="line"/>
      <point x="592" y="700" type="line"/>
      <point x="45" y="700" type="line"/>
      <point x="45" y="576" type="line"/>
      <point x="399" y="576" type="line"/>
      <point x="31" y="125" type="line"/>
      <point x="23" y="125" type="line"/>
      <point x="23" y="0" type="line"/>
      <point x="588" y="0" type="line"/>
      <point x="588" y="125" type="line"/>
      <point x="215" y="125" type="line"/>
      <point x="584" y="576" type="line"/>
    </contour>
  </outline>
</glyph>
<glyph name="florin" format="1">
  <advance width="583"/>
  <unicode hex="0192"/>
  <outline>
    <contour>
      <point x="194" y="721"/>
      <point x="164" y="575"/>
      <point x="149" y="522" type="curve" smooth="yes"/>
      <point x="124" y="425" type="line"/>
      <point x="7" y="425" type="line"/>
      <point x="7" y="308" type="line"/>
      <point x="93" y="308" type="line"/>
      <point x="-29" y="-158" type="line"/>
      <point x="124" y="-158" type="line"/>
      <point x="246" y="308" type="line"/>
      <point x="415" y="308" type="line"/>
      <point x="415" y="425" type="line"/>
      <point x="277" y="425" type="line"/>
      <point x="301" y="517" type="line" smooth="yes"/>
      <point x="315" y="569"/>
      <point x="333" y="616"/>
      <point x="380" y="616" type="curve" smooth="yes"/>
      <point x="412" y="616"/>
      <point x="459" y="565"/>
      <point x="466" y="541" type="curve"/>
      <point x="579" y="624" type="line"/>
      <point x="560" y="652"/>
      <point x="508" y="721"/>
      <point x="380" y="721" type="curve" smooth="yes"/>
    </contour>
  </outline>
</glyph>
<glyph name="circumflex" format="1">
  <advance width="600"/>
  <unicode hex="02C6"/>
  <outline>
    <contour>
      <point x="289" y="647" type="line"/>
      <point x="381" y="561" type="line"/>
      <point x="503" y="599" type="line"/>
      <point x="305" y="773" type="line"/>
      <point x="290" y="788" type="line"/>
      <point x="289" y="787" type="line"/>
      <point x="288" y="788" type="line"/>
      <point x="273" y="773" type="line"/>
      <point x="75" y="599" type="line"/>
      <point x="197" y="561" type="line"/>
    </contour>
  </outline>
</glyph>
<glyph name="caron" format="1">
  <advance width="600"/>
  <unicode hex="02C7"/>
  <outline>
    <contour>
      <point x="290" y="554" type="line"/>
      <point x="503" y="753" type="line"/>
      <point x="405" y="759" type="line"/>
      <point x="290" y="687" type="line"/>
      <point x="175" y="759" type="line"/>
      <point x="77" y="753" type="line"/>
    </contour>
  </outline>
</glyph>
<glyph name="dotaccent" format="1">
  <advance width="248"/>
  <unicode hex="02D9"/>
  <outline>
    <contour>
      <point x="47" y="708" type="line"/>
      <point x="47" y="584" type="line"/>
      <point x="201" y="584" type="line"/>
      <point x="201" y="708" type="line"/>
    </contour>
  </outline>
</glyph>
<glyph name="tilde" format="1">
  <advance width="600"/>
  <unicode hex="02DC"/>
  <outline>
    <contour>
      <point x="337" y="751" type="line"/>
      <point x="400" y="715"/>
      <point x="403" y="662"/>
      <point x="386" y="662" type="curve" smooth="yes"/>
      <point x="363" y="662"/>
      <point x="342" y="691"/>
      <point x="318" y="708" type="curve" smooth="yes"/>
      <point x="274" y="739"/>
      <point x="251" y="751"/>
      <point x="209" y="751" type="curve" smooth="yes"/>
      <point x="103" y="751"/>
      <point x="89" y="642"/>
      <point x="150" y="581" type="curve"/>
      <point x="269" y="581" type="line"/>
      <point x="206" y="617"/>
      <point x="202" y="670"/>
      <point x="220" y="670" type="curve" smooth="yes"/>
      <point x="244" y="670"/>
      <point x="265" y="641"/>
      <point x="305" y="613" type="curve" smooth="yes"/>
      <point x="329" y="595"/>
      <point x="360" y="581"/>
      <point x="397" y="581" type="curve" smooth="yes"/>
      <point x="500" y="581"/>
      <point x="529" y="706"/>
      <point x="450" y="751" type="curve"/>
    </contour>
  </outline>
</glyph>
<glyph name="hungarumlaut" format="1">
  <advance width="788"/>
  <unicode hex="02DD"/>
  <outline>
    <contour>
      <point x="243" y="555" type="line"/>
      <point x="415" y="662" type="line"/>
      <point x="338" y="790" type="line"/>
      <point x="125" y="591" type="line"/>
    </contour>
    <contour>
      <point x="488" y="555" type="line"/>
      <point x="660" y="662" type="line"/>
      <point x="583" y="790" type="line"/>
      <point x="370" y="591" type="line"/>
    </contour>
  </outline>
</glyph>
<glyph name="mu" format="1">
  <advance width="556"/>
  <unicode hex="03BC"/>
  <outline>
    <contour>
      <point x="534" y="-6" type="line"/>
      <point x="534" y="500" type="line"/>
      <point x="380" y="500" type="line"/>
      <point x="380" y="250" type="line" smooth="yes"/>
      <point x="377" y="122"/>
      <point x="314" y="96"/>
      <point x="260" y="96" type="curve" smooth="yes"/>
      <point x="197" y="96"/>
      <point x="176" y="136"/>
      <point x="176" y="203" type="curve" smooth="yes"/>
      <point x="176" y="500" type="line"/>
      <point x="22" y="500" type="line"/>
      <point x="22" y="-200" type="line"/>
      <point x="176" y="-200" type="line"/>
      <point x="176" y="-5" type="line"/>
      <point x="197" y="-9"/>
      <point x="222" y="-12"/>
      <point x="249" y="-12" type="curve" smooth="yes"/>
      <point x="300" y="-12"/>
      <point x="345" y="-0"/>
      <point x="380" y="22" type="curve"/>
      <point x="380" y="-6" type="line"/>
    </contour>
  </outline>
</glyph>
<glyph name="quoteleft" format="1">
  <advance width="310"/>
  <unicode hex="2018"/>
  <outline>
    <contour>
      <point x="83" y="729" type="line"/>
      <point x="124" y="714"/>
      <point x="128" y="672"/>
      <point x="128" y="634" type="curve"/>
      <point x="66" y="634" type="line"/>
      <point x="66" y="486" type="line"/>
      <point x="244" y="486" type="line"/>
      <point x="244" y="634" type="line" smooth="yes"/>
      <point x="244" y="672"/>
      <point x="220" y="787"/>
      <point x="83" y="803" type="curve"/>
    </contour>
  </outline>
</glyph>
<glyph name="quoteright" format="1">
  <advance width="310"/>
  <unicode hex="2019"/>
  <outline>
    <contour>
      <point x="244" y="809" type="line"/>
      <point x="66" y="809" type="line"/>
      <point x="66" y="661" type="line"/>
      <point x="128" y="661" type="line"/>
      <point x="128" y="623"/>
      <point x="124" y="581"/>
      <point x="83" y="566" type="curve"/>
      <point x="83" y="492" type="line"/>
      <point x="220" y="508"/>
      <point x="244" y="623"/>
      <point x="244" y="661" type="curve" smooth="yes"/>
    </contour>
  </outline>
</glyph>
<glyph name="quotesinglbase" format="1">
  <advance width="600"/>
  <unicode hex="201A"/>
  <outline>
    <contour>
      <point x="244" y="148" type="line"/>
      <point x="66" y="148" type="line"/>
      <point x="66" y="0" type="line"/>
      <point x="128" y="0" type="line"/>
      <point x="128" y="-38"/>
      <point x="124" y="-80"/>
      <point x="83" y="-95" type="curve"/>
      <point x="83" y="-169" type="line"/>
      <point x="220" y="-153"/>
      <point x="244" y="-38"/>
      <point x="244" y="0" type="curve" smooth="yes"/>
    </contour>
  </outline>
</glyph>
<glyph name="quotedblbase" format="1">
  <advance width="600"/>
  <unicode hex="201E"/>
  <outline>
    <contour>
      <point x="66" y="148" type="line"/>
      <point x="66" y="0" type="line"/>
      <point x="128" y="0" type="line"/>
      <point x="128" y="-38"/>
      <point x="124" y="-80"/>
      <point x="83" y="-95" type="curve"/>
      <point x="83" y="-169" type="line"/>
      <point x="220" y="-153"/>
      <point x="244" y="-38"/>
      <point x="244" y="0" type="curve" smooth="yes"/>
      <point x="244" y="148" type="line"/>
    </contour>
    <contour>
      <point x="507" y="148" type="line"/>
      <point x="329" y="148" type="line"/>
      <point x="329" y="0" type="line"/>
      <point x="391" y="0" type="line"/>
      <point x="391" y="-38"/>
      <point x="387" y="-80"/>
      <point x="346" y="-95" type="curve"/>
      <point x="346" y="-169" type="line"/>
      <point x="483" y="-153"/>
      <point x="507" y="-38"/>
      <point x="507" y="0" type="curve" smooth="yes"/>
    </contour>
  </outline>
</glyph>
<glyph name="dagger" format="1">
  <advance width="600"/>
  <unicode hex="2020"/>
  <outline>
    <contour>
      <point x="560" y="563" type="line"/>
      <point x="359" y="552" type="line"/>
      <point x="380" y="742" type="line"/>
      <point x="220" y="742" type="line"/>
      <point x="241" y="552" type="line"/>
      <point x="40" y="563" type="line"/>
      <point x="40" y="429" type="line"/>
      <point x="243" y="440" type="line"/>
      <point x="220" y="-149" type="line"/>
      <point x="380" y="-149" type="line"/>
      <point x="357" y="440" type="line"/>
      <point x="560" y="429" type="line"/>
    </contour>
  </outline>
</glyph>
<glyph name="guilsinglleft" format="1">
  <advance width="347"/>
  <unicode hex="2039"/>
  <outline>
    <contour>
      <point x="279" y="91" type="line"/>
      <point x="151" y="267" type="line"/>
      <point x="279" y="443" type="line"/>
      <point x="182" y="507" type="line"/>
      <point x="-3" y="267" type="line"/>
      <point x="183" y="26" type="line"/>
    </contour>
  </outline>
</glyph>
<glyph name="guilsinglright" format="1">
  <advance width="352"/>
  <unicode hex="203A"/>
  <outline>
    <contour>
      <point x="68" y="443" type="line"/>
      <point x="196" y="267" type="line"/>
      <point x="68" y="91" type="line"/>
      <point x="164" y="26" type="line"/>
      <point x="350" y="267" type="line"/>
      <point x="165" y="507" type="line"/>
    </contour>
  </outline>
</glyph>
<glyph name="Euro" format="1">
  <advance width="784"/>
  <unicode hex="20AC"/>
  <outline>
    <contour>
      <point x="423" y="110"/>
      <point x="362" y="149"/>
      <point x="327" y="215" type="curve"/>
      <point x="561" y="215" type="line"/>
      <point x="561" y="308" type="line"/>
      <point x="299" y="308" type="line"/>
      <point x="298" y="321"/>
      <point x="297" y="334"/>
      <point x="297" y="348" type="curve" smooth="yes"/>
      <point x="297" y="352"/>
      <point x="297" y="356"/>
      <point x="297" y="360" type="curve"/>
      <point x="561" y="360" type="line"/>
      <point x="561" y="453" type="line"/>
      <point x="314" y="453" type="line"/>
      <point x="345" y="538"/>
      <point x="414" y="590"/>
      <point x="497" y="590" type="curve" smooth="yes"/>
      <point x="572" y="590"/>
      <point x="631" y="556"/>
      <point x="673" y="477" type="curve"/>
      <point x="808" y="545" type="line"/>
      <point x="753" y="637"/>
      <point x="638" y="705"/>
      <point x="497" y="705" type="curve" smooth="yes"/>
      <point x="319" y="705"/>
      <point x="191" y="596"/>
      <point x="148" y="453" type="curve"/>
      <point x="22" y="453" type="line"/>
      <point x="22" y="360" type="line"/>
      <point x="133" y="360" type="line"/>
      <point x="133" y="356"/>
      <point x="133" y="352"/>
      <point x="133" y="348" type="curve" smooth="yes"/>
      <point x="133" y="335"/>
      <point x="134" y="321"/>
      <point x="135" y="308" type="curve"/>
      <point x="22" y="308" type="line"/>
      <point x="22" y="215" type="line"/>
      <point x="159" y="215" type="line"/>
      <point x="210" y="89"/>
      <point x="333" y="-5"/>
      <point x="497" y="-5" type="curve" smooth="yes"/>
      <point x="637" y="-5"/>
      <point x="752" y="61"/>
      <point x="806" y="151" type="curve"/>
      <point x="670" y="217" type="line"/>
      <point x="628" y="142"/>
      <point x="570" y="110"/>
      <point x="497" y="110" type="curve" smooth="yes"/>
    </contour>
  </outline>
</glyph>
<glyph name="product" format="1">
  <advance width="687"/>
  <unicode hex="220F"/>
  <outline>
    <contour>
      <point x="584" y="567" type="line"/>
      <point x="687" y="567" type="line"/>
      <point x="687" y="699" type="line"/>
      <point x="1" y="699" type="line"/>
      <point x="1" y="567" type="line"/>
      <point x="100" y="567" type="line"/>
      <point x="100" y="-110" type="line"/>
      <point x="260" y="-110" type="line"/>
      <point x="260" y="567" type="line"/>
      <point x="424" y="567" type="line"/>
      <point x="424" y="-110" type="line"/>
      <point x="584" y="-110" type="line"/>
    </contour>
  </outline>
</glyph>
<glyph name="summation" format="1">
  <advance width="732"/>
  <unicode hex="2211"/>
  <outline>
    <contour>
      <point x="267" y="567" type="line"/>
      <point x="678" y="567" type="line"/>
      <point x="678" y="699" type="line"/>
      <point x="60" y="699" type="line"/>
      <point x="60" y="567" type="line"/>
      <point x="410" y="301" type="line"/>
      <point x="60" y="26" type="line"/>
      <point x="60" y="-106" type="line"/>
      <point x="678" y="-106" type="line"/>
      <point x="678" y="26" type="line"/>
      <point x="264" y="26" type="line"/>
      <point x="614" y="298" type="line"/>
    </contour>
  </outline>
</glyph>
<glyph name="radical" format="1">
  <advance width="497"/>
  <unicode hex="221A"/>
  <outline>
    <contour>
      <point x="193" y="-14" type="line"/>
      <point x="302" y="-13" type="line"/>
      <point x="487" y="523" type="line"/>
      <point x="377" y="523" type="line"/>
      <point x="248" y="146" type="line"/>
      <point x="202" y="280" type="line"/>
      <point x="107" y="280" type="line"/>
      <point x="18" y="212" type="line"/>
      <point x="70" y="149" type="line"/>
      <point x="122" y="192" type="line"/>
    </contour>
  </outline>
</glyph>
<glyph name="infinity" format="1">
  <advance width="858"/>
  <unicode hex="221E"/>
  <outline>
    <contour>
      <point x="557" y="553"/>
      <point x="491" y="504"/>
      <point x="433" y="446" type="curve"/>
      <point x="371" y="504"/>
      <point x="300" y="553"/>
      <point x="215" y="553" type="curve" smooth="yes"/>
      <point x="82" y="553"/>
      <point x="17" y="437"/>
      <point x="17" y="345" type="curve" smooth="yes"/>
      <point x="17" y="253"/>
      <point x="81" y="138"/>
      <point x="214" y="138" type="curve" smooth="yes"/>
      <point x="293" y="138"/>
      <point x="370" y="190"/>
      <point x="430" y="244" type="curve"/>
      <point x="488" y="190"/>
      <point x="564" y="138"/>
      <point x="642" y="138" type="curve" smooth="yes"/>
      <point x="775" y="138"/>
      <point x="841" y="254"/>
      <point x="841" y="346" type="curve" smooth="yes"/>
      <point x="841" y="438"/>
      <point x="776" y="553"/>
      <point x="643" y="553" type="curve" smooth="yes"/>
    </contour>
    <contour>
      <point x="179" y="262"/>
      <point x="151" y="295"/>
      <point x="151" y="346" type="curve" smooth="yes"/>
      <point x="151" y="397"/>
      <point x="179" y="429"/>
      <point x="214" y="429" type="curve" smooth="yes"/>
      <point x="261" y="429"/>
      <point x="295" y="396"/>
      <point x="338" y="345" type="curve"/>
      <point x="304" y="309"/>
      <point x="260" y="262"/>
      <point x="215" y="262" type="curve" smooth="yes"/>
    </contour>
    <contour>
      <point x="607" y="262"/>
      <point x="570" y="303"/>
      <point x="530" y="346" type="curve"/>
      <point x="579" y="399"/>
      <point x="606" y="429"/>
      <point x="642" y="429" type="curve" smooth="yes"/>
      <point x="686" y="429"/>
      <point x="707" y="389"/>
      <point x="707" y="345" type="curve" smooth="yes"/>
      <point x="707" y="302"/>
      <point x="687" y="262"/>
      <point x="643" y="262" type="curve" smooth="yes"/>
    </contour>
  </outline>
</glyph>
<glyph name="approxequal" format="1">
  <advance width="600"/>
  <unicode hex="2248"/>
  <outline>
    <contour>
      <point x="431" y="477" type="line"/>
      <point x="448" y="434"/>
      <point x="436" y="396"/>
      <point x="407" y="396" type="curve" smooth="yes"/>
      <point x="376" y="396"/>
      <point x="347" y="427"/>
      <point x="311" y="453" type="curve" smooth="yes"/>
      <point x="283" y="473"/>
      <point x="235" y="500"/>
      <point x="179" y="500" type="curve" smooth="yes"/>
      <point x="4" y="500"/>
      <point x="18" y="356"/>
      <point x="33" y="324" type="curve"/>
      <point x="162" y="324" type="line"/>
      <point x="145" y="357"/>
      <point x="157" y="405"/>
      <point x="187" y="405" type="curve" smooth="yes"/>
      <point x="224" y="405"/>
      <point x="248" y="374"/>
      <point x="284" y="348" type="curve" smooth="yes"/>
      <point x="312" y="328"/>
      <point x="359" y="301"/>
      <point x="415" y="301" type="curve" smooth="yes"/>
      <point x="590" y="301"/>
      <point x="576" y="445"/>
      <point x="561" y="477" type="curve"/>
    </contour>
    <contour>
      <point x="431" y="254" type="line"/>
      <point x="448" y="211"/>
      <point x="436" y="173"/>
      <point x="407" y="173" type="curve" smooth="yes"/>
      <point x="376" y="173"/>
      <point x="347" y="204"/>
      <point x="311" y="230" type="curve" smooth="yes"/>
      <point x="283" y="250"/>
      <point x="235" y="277"/>
      <point x="179" y="277" type="curve" smooth="yes"/>
      <point x="4" y="277"/>
      <point x="18" y="133"/>
      <point x="33" y="101" type="curve"/>
      <point x="162" y="101" type="line"/>
      <point x="145" y="134"/>
      <point x="157" y="182"/>
      <point x="187" y="182" type="curve" smooth="yes"/>
      <point x="224" y="182"/>
      <point x="248" y="151"/>
      <point x="284" y="125" type="curve" smooth="yes"/>
      <point x="312" y="105"/>
      <point x="359" y="78"/>
      <point x="415" y="78" type="curve" smooth="yes"/>
      <point x="590" y="78"/>
      <point x="576" y="222"/>
      <point x="561" y="254" type="curve"/>
    </contour>
  </outline>
</glyph>
<glyph name="notequal" format="1">
  <advance width="600"/>
  <unicode hex="2260"/>
  <outline>
    <contour>
      <point x="403" y="299" type="line"/>
      <point x="576" y="299" type="line"/>
      <point x="576" y="416" type="line"/>
      <point x="438" y="416" type="line"/>
      <point x="507" y="650" type="line"/>
      <point x="357" y="650" type="line"/>
      <point x="288" y="416" type="line"/>
      <point x="21" y="416" type="line"/>
      <point x="21" y="299" type="line"/>
      <point x="253" y="299" type="line"/>
      <point x="233" y="231" type="line"/>
      <point x="21" y="231" type="line"/>
      <point x="21" y="114" type="line"/>
      <point x="198" y="114" type="line"/>
      <point x="129" y="-118" type="line"/>
      <point x="279" y="-118" type="line"/>
      <point x="348" y="114" type="line"/>
      <point x="576" y="114" type="line"/>
      <point x="576" y="231" type="line"/>
      <point x="383" y="231" type="line"/>
    </contour>
  </outline>
</glyph>
<glyph name="lozenge" format="1">
  <advance width="754"/>
  <unicode hex="25CA"/>
  <outline>
    <contour>
      <point x="30" y="287" type="line"/>
      <point x="377" y="-20" type="line"/>
      <point x="724" y="287" type="line"/>
      <point x="377" y="593" type="line"/>
    </contour>
    <contour>
      <point x="224" y="287" type="line"/>
      <point x="377" y="429" type="line"/>
      <point x="530" y="287" type="line"/>
      <point x="377" y="145" type="line"/>
    </contour>
  </outline>
</glyph>
<glyph name="fl" format="1">
  <advance width="615"/>
  <unicode hex="FB02"/>
  <outline>
    <contour>
      <point x="567" y="700" type="line"/>
      <point x="415" y="700" type="line"/>
      <point x="415" y="681" type="line"/>
      <point x="379" y="710"/>
      <point x="323" y="738"/>
      <point x="247" y="738" type="curve" smooth="yes"/>
      <point x="106" y="738"/>
      <point x="28" y="674"/>
      <point x="28" y="586" type="curve" smooth="yes"/>
      <point x="28" y="533"/>
      <point x="59" y="509"/>
      <point x="73" y="501" type="curve"/>
      <point x="-13" y="501" type="line"/>
      <point x="-13" y="385" type="line"/>
      <point x="75" y="385" type="line"/>
      <point x="74" y="0" type="line"/>
      <point x="226" y="0" type="line"/>
      <point x="226" y="385" type="line"/>
      <point x="382" y="385" type="line"/>
      <point x="382" y="501" type="line"/>
      <point x="254" y="501" type="line" smooth="yes"/>
      <point x="198" y="501"/>
      <point x="168" y="538"/>
      <point x="168" y="572" type="curve" smooth="yes"/>
      <point x="168" y="616"/>
      <point x="195" y="644"/>
      <point x="247" y="644" type="curve" smooth="yes"/>
      <point x="305" y="644"/>
      <point x="323" y="593"/>
      <point x="332" y="577" type="curve"/>
      <point x="415" y="612" type="line"/>
      <point x="415" y="0" type="line"/>
      <point x="567" y="0" type="line"/>
    </contour>
  </outline>
</glyph>
